<svg width="355" height="93" viewBox="0 0 355 93" fill="none" xmlns="http://www.w3.org/2000/svg">
<path d="M42.0959 31.906L55.5119 1.806H62.3919L75.8509 31.906H68.5409L57.5329 5.332H60.2849L49.2339 31.906H42.0959ZM48.8039 25.456L50.6529 20.167H66.1329L68.0249 25.456H48.8039ZM87.7508 32.25C85.0275 32.25 82.9062 31.562 81.3868 30.186C79.8675 28.7813 79.1078 26.703 79.1078 23.951V3.65501H85.8158V23.865C85.8158 24.8397 86.0738 25.5993 86.5898 26.144C87.1058 26.66 87.8082 26.918 88.6968 26.918C89.7575 26.918 90.6605 26.6313 91.4058 26.058L93.2118 30.788C92.5238 31.2753 91.6925 31.648 90.7178 31.906C89.7718 32.1353 88.7828 32.25 87.7508 32.25ZM75.5388 14.448V9.288H91.5778V14.448H75.5388ZM106.738 32.25C104.818 32.25 103.098 31.8773 101.578 31.132C100.088 30.3867 98.9267 29.2543 98.0953 27.735C97.264 26.187 96.8483 24.2233 96.8483 21.844V8.772H103.556V20.855C103.556 22.7757 103.958 24.1947 104.76 25.112C105.592 26.0007 106.753 26.445 108.243 26.445C109.275 26.445 110.193 26.23 110.995 25.8C111.798 25.3413 112.429 24.6533 112.887 23.736C113.346 22.79 113.575 21.6147 113.575 20.21V8.772H120.283V31.906H113.919V25.542L115.08 27.391C114.306 28.9963 113.16 30.2147 111.64 31.046C110.15 31.8487 108.516 32.25 106.738 32.25ZM126.498 31.906V8.772H132.905V15.308L132.002 13.416C132.69 11.782 133.794 10.5493 135.313 9.718C136.832 8.85801 138.681 8.42801 140.86 8.42801V14.62C140.573 14.5913 140.315 14.577 140.086 14.577C139.857 14.5483 139.613 14.534 139.355 14.534C137.52 14.534 136.03 15.0643 134.883 16.125C133.765 17.157 133.206 18.7767 133.206 20.984V31.906H126.498ZM162.741 27.176L162.913 19.006L173.706 8.772H181.704L171.341 19.307L167.858 22.145L162.741 27.176ZM157.194 31.906V3.99351e-06H163.902V31.906H157.194ZM174.437 31.906L166.611 22.188L170.825 16.985L182.564 31.906H174.437ZM195.623 32.25C193.158 32.25 190.965 31.734 189.044 30.702C187.152 29.67 185.647 28.2653 184.529 26.488C183.44 24.682 182.895 22.6323 182.895 20.339C182.895 18.017 183.44 15.9673 184.529 14.19C185.647 12.384 187.152 10.9793 189.044 9.976C190.965 8.94401 193.158 8.42801 195.623 8.42801C198.06 8.42801 200.238 8.94401 202.159 9.976C204.08 10.9793 205.585 12.3697 206.674 14.147C207.763 15.9243 208.308 17.9883 208.308 20.339C208.308 22.6323 207.763 24.682 206.674 26.488C205.585 28.2653 204.08 29.67 202.159 30.702C200.238 31.734 198.06 32.25 195.623 32.25ZM195.623 26.746C196.741 26.746 197.744 26.488 198.633 25.972C199.522 25.456 200.224 24.725 200.74 23.779C201.256 22.8043 201.514 21.6577 201.514 20.339C201.514 18.9917 201.256 17.845 200.74 16.899C200.224 15.953 199.522 15.222 198.633 14.706C197.744 14.19 196.741 13.932 195.623 13.932C194.505 13.932 193.502 14.19 192.613 14.706C191.724 15.222 191.008 15.953 190.463 16.899C189.947 17.845 189.689 18.9917 189.689 20.339C189.689 21.6577 189.947 22.8043 190.463 23.779C191.008 24.725 191.724 25.456 192.613 25.972C193.502 26.488 194.505 26.746 195.623 26.746ZM226.853 8.42801C228.687 8.42801 230.321 8.80067 231.755 9.546C233.217 10.2627 234.363 11.3807 235.195 12.9C236.026 14.3907 236.442 16.3113 236.442 18.662V31.906H229.734V19.694C229.734 17.8307 229.318 16.4547 228.487 15.566C227.684 14.6773 226.537 14.233 225.047 14.233C223.986 14.233 223.026 14.4623 222.166 14.921C221.334 15.351 220.675 16.0247 220.188 16.942C219.729 17.8593 219.5 19.0347 219.5 20.468V31.906H212.792V8.772H219.199V15.179L217.995 13.244C218.826 11.696 220.016 10.5063 221.564 9.67501C223.112 8.84367 224.875 8.42801 226.853 8.42801ZM251.982 32.25C249.259 32.25 247.138 31.562 245.618 30.186C244.099 28.7813 243.339 26.703 243.339 23.951V3.65501H250.047V23.865C250.047 24.8397 250.305 25.5993 250.821 26.144C251.337 26.66 252.04 26.918 252.928 26.918C253.989 26.918 254.892 26.6313 255.637 26.058L257.443 30.788C256.755 31.2753 255.924 31.648 254.949 31.906C254.003 32.1353 253.014 32.25 251.982 32.25ZM239.77 14.448V9.288H255.809V14.448H239.77ZM275.399 31.906V27.391L274.969 26.402V18.318C274.969 16.8847 274.524 15.7667 273.636 14.964C272.776 14.1613 271.443 13.76 269.637 13.76C268.404 13.76 267.186 13.9607 265.982 14.362C264.806 14.7347 263.803 15.2507 262.972 15.91L260.564 11.223C261.825 10.3343 263.344 9.64634 265.122 9.159C266.899 8.67167 268.705 8.42801 270.54 8.42801C274.066 8.42801 276.803 9.25934 278.753 10.922C280.702 12.5847 281.677 15.179 281.677 18.705V31.906H275.399ZM268.347 32.25C266.541 32.25 264.993 31.949 263.703 31.347C262.413 30.7163 261.424 29.8707 260.736 28.81C260.048 27.7493 259.704 26.5597 259.704 25.241C259.704 23.865 260.033 22.661 260.693 21.629C261.381 20.597 262.456 19.7943 263.918 19.221C265.38 18.619 267.286 18.318 269.637 18.318H275.786V22.231H270.368C268.791 22.231 267.702 22.489 267.1 23.005C266.526 23.521 266.24 24.166 266.24 24.94C266.24 25.8 266.569 26.488 267.229 27.004C267.917 27.4913 268.848 27.735 270.024 27.735C271.142 27.735 272.145 27.477 273.034 26.961C273.922 26.4163 274.567 25.628 274.969 24.596L276.001 27.692C275.513 29.1827 274.625 30.315 273.335 31.089C272.045 31.863 270.382 32.25 268.347 32.25ZM293.295 27.176L293.467 19.006L304.26 8.772H312.258L301.895 19.307L298.412 22.145L293.295 27.176ZM287.748 31.906V3.99351e-06H294.456V31.906H287.748ZM304.991 31.906L297.165 22.188L301.379 16.985L313.118 31.906H304.991ZM11.5671 84.25C9.38842 84.25 7.42475 83.7627 5.67609 82.788C3.92742 81.7847 2.53709 80.3943 1.50509 78.617C0.501753 76.8397 8.6017e-05 74.747 8.6017e-05 72.339C8.6017e-05 69.9023 0.501753 67.7953 1.50509 66.018C2.53709 64.2407 3.92742 62.8647 5.67609 61.89C7.42475 60.9153 9.38842 60.428 11.5671 60.428C13.5164 60.428 15.2221 60.858 16.6841 61.718C18.1461 62.578 19.2784 63.8823 20.0811 65.631C20.8838 67.3797 21.2851 69.6157 21.2851 72.339C21.2851 75.0337 20.8981 77.2697 20.1241 79.047C19.3501 80.7957 18.2321 82.1 16.7701 82.96C15.3368 83.82 13.6024 84.25 11.5671 84.25ZM12.7281 78.746C13.8174 78.746 14.8064 78.488 15.6951 77.972C16.5838 77.456 17.2861 76.725 17.8021 75.779C18.3468 74.8043 18.6191 73.6577 18.6191 72.339C18.6191 70.9917 18.3468 69.845 17.8021 68.899C17.2861 67.953 16.5838 67.222 15.6951 66.706C14.8064 66.19 13.8174 65.932 12.7281 65.932C11.6101 65.932 10.6068 66.19 9.71809 66.706C8.82942 67.222 8.11275 67.953 7.56809 68.899C7.05209 69.845 6.79409 70.9917 6.79409 72.339C6.79409 73.6577 7.05209 74.8043 7.56809 75.779C8.11275 76.725 8.82942 77.456 9.71809 77.972C10.6068 78.488 11.6101 78.746 12.7281 78.746ZM18.7911 83.906V79.176L18.9201 72.296L18.4901 65.459V52H25.1981V83.906H18.7911ZM42.8875 84.25C40.2502 84.25 37.9282 83.734 35.9215 82.702C33.9435 81.67 32.4099 80.2653 31.3205 78.488C30.2312 76.682 29.6865 74.6323 29.6865 72.339C29.6865 70.017 30.2169 67.9673 31.2775 66.19C32.3669 64.384 33.8432 62.9793 35.7065 61.976C37.5699 60.944 39.6769 60.428 42.0275 60.428C44.2922 60.428 46.3275 60.9153 48.1335 61.89C49.9682 62.836 51.4159 64.212 52.4765 66.018C53.5372 67.7953 54.0675 69.931 54.0675 72.425C54.0675 72.683 54.0532 72.984 54.0245 73.328C53.9959 73.6433 53.9672 73.9443 53.9385 74.231H35.1475V70.318H50.4125L47.8325 71.479C47.8325 70.275 47.5889 69.2287 47.1015 68.34C46.6142 67.4513 45.9405 66.7633 45.0805 66.276C44.2205 65.76 43.2172 65.502 42.0705 65.502C40.9239 65.502 39.9062 65.76 39.0175 66.276C38.1575 66.7633 37.4839 67.4657 36.9965 68.383C36.5092 69.2717 36.2655 70.3323 36.2655 71.565V72.597C36.2655 73.8583 36.5379 74.9763 37.0825 75.951C37.6559 76.897 38.4442 77.628 39.4475 78.144C40.4795 78.6313 41.6835 78.875 43.0595 78.875C44.2922 78.875 45.3672 78.6887 46.2845 78.316C47.2305 77.9433 48.0905 77.3843 48.8645 76.639L52.4335 80.509C51.3729 81.713 50.0399 82.6447 48.4345 83.304C46.8292 83.9347 44.9802 84.25 42.8875 84.25ZM72.5945 60.428C74.4292 60.428 76.0632 60.8007 77.4965 61.546C78.9585 62.2627 80.1052 63.3807 80.9365 64.9C81.7678 66.3907 82.1835 68.3113 82.1835 70.662V83.906H75.4755V71.694C75.4755 69.8307 75.0598 68.4547 74.2285 67.566C73.4258 66.6773 72.2792 66.233 70.7885 66.233C69.7278 66.233 68.7675 66.4623 67.9075 66.921C67.0762 67.351 66.4168 68.0247 65.9295 68.942C65.4708 69.8593 65.2415 71.0347 65.2415 72.468V83.906H58.5335V60.772H64.9405V67.179L63.7365 65.244C64.5678 63.696 65.7575 62.5063 67.3055 61.675C68.8535 60.8437 70.6165 60.428 72.5945 60.428ZM99.3109 92.592C97.1323 92.592 95.0253 92.3197 92.9899 91.775C90.9833 91.259 89.3063 90.4707 87.9589 89.41L90.6249 84.594C91.5996 85.3967 92.8323 86.0273 94.3229 86.486C95.8423 86.9733 97.3329 87.217 98.7949 87.217C101.174 87.217 102.894 86.6867 103.955 85.626C105.044 84.5653 105.589 82.9887 105.589 80.896V77.413L106.019 71.608L105.933 65.76V60.772H112.297V80.036C112.297 84.336 111.179 87.5037 108.943 89.539C106.707 91.5743 103.496 92.592 99.3109 92.592ZM98.2789 82.788C96.1289 82.788 94.1796 82.3293 92.4309 81.412C90.7109 80.466 89.3206 79.1617 88.2599 77.499C87.2279 75.8077 86.7119 73.844 86.7119 71.608C86.7119 69.3433 87.2279 67.3797 88.2599 65.717C89.3206 64.0257 90.7109 62.7213 92.4309 61.804C94.1796 60.8867 96.1289 60.428 98.2789 60.428C100.228 60.428 101.948 60.8293 103.439 61.632C104.93 62.406 106.091 63.6243 106.922 65.287C107.753 66.921 108.169 69.028 108.169 71.608C108.169 74.1593 107.753 76.2663 106.922 77.929C106.091 79.563 104.93 80.7813 103.439 81.584C101.948 82.3867 100.228 82.788 98.2789 82.788ZM99.6119 77.284C100.787 77.284 101.834 77.0547 102.751 76.596C103.668 76.1087 104.385 75.435 104.901 74.575C105.417 73.715 105.675 72.726 105.675 71.608C105.675 70.4613 105.417 69.4723 104.901 68.641C104.385 67.781 103.668 67.1217 102.751 66.663C101.834 66.1757 100.787 65.932 99.6119 65.932C98.4366 65.932 97.3903 66.1757 96.4729 66.663C95.5556 67.1217 94.8246 67.781 94.2799 68.641C93.7639 69.4723 93.5059 70.4613 93.5059 71.608C93.5059 72.726 93.7639 73.715 94.2799 74.575C94.8246 75.435 95.5556 76.1087 96.4729 76.596C97.3903 77.0547 98.4366 77.284 99.6119 77.284ZM132.73 83.906V79.391L132.3 78.402V70.318C132.3 68.8847 131.856 67.7667 130.967 66.964C130.107 66.1613 128.774 65.76 126.968 65.76C125.736 65.76 124.517 65.9607 123.313 66.362C122.138 66.7347 121.135 67.2507 120.303 67.91L117.895 63.223C119.157 62.3343 120.676 61.6463 122.453 61.159C124.231 60.6717 126.037 60.428 127.871 60.428C131.397 60.428 134.135 61.2593 136.084 62.922C138.034 64.5847 139.008 67.179 139.008 70.705V83.906H132.73ZM125.678 84.25C123.872 84.25 122.324 83.949 121.034 83.347C119.744 82.7163 118.755 81.8707 118.067 80.81C117.379 79.7493 117.035 78.5597 117.035 77.241C117.035 75.865 117.365 74.661 118.024 73.629C118.712 72.597 119.787 71.7943 121.249 71.221C122.711 70.619 124.618 70.318 126.968 70.318H133.117V74.231H127.699C126.123 74.231 125.033 74.489 124.431 75.005C123.858 75.521 123.571 76.166 123.571 76.94C123.571 77.8 123.901 78.488 124.56 79.004C125.248 79.4913 126.18 79.735 127.355 79.735C128.473 79.735 129.477 79.477 130.365 78.961C131.254 78.4163 131.899 77.628 132.3 76.596L133.332 79.692C132.845 81.1827 131.956 82.315 130.666 83.089C129.376 83.863 127.714 84.25 125.678 84.25ZM159.14 60.428C160.975 60.428 162.609 60.8007 164.042 61.546C165.504 62.2627 166.651 63.3807 167.482 64.9C168.314 66.3907 168.729 68.3113 168.729 70.662V83.906H162.021V71.694C162.021 69.8307 161.606 68.4547 160.774 67.566C159.972 66.6773 158.825 66.233 157.334 66.233C156.274 66.233 155.313 66.4623 154.453 66.921C153.622 67.351 152.963 68.0247 152.475 68.942C152.017 69.8593 151.787 71.0347 151.787 72.468V83.906H145.079V60.772H151.486V67.179L150.282 65.244C151.114 63.696 152.303 62.5063 153.851 61.675C155.399 60.8437 157.162 60.428 159.14 60.428ZM216.615 60.428C218.449 60.428 220.069 60.8007 221.474 61.546C222.907 62.2627 224.025 63.3807 224.828 64.9C225.659 66.3907 226.075 68.3113 226.075 70.662V83.906H219.367V71.694C219.367 69.8307 218.98 68.4547 218.206 67.566C217.432 66.6773 216.342 66.233 214.938 66.233C213.963 66.233 213.089 66.4623 212.315 66.921C211.541 67.351 210.939 68.0103 210.509 68.899C210.079 69.7877 209.864 70.92 209.864 72.296V83.906H203.156V71.694C203.156 69.8307 202.769 68.4547 201.995 67.566C201.249 66.6773 200.174 66.233 198.77 66.233C197.795 66.233 196.921 66.4623 196.147 66.921C195.373 67.351 194.771 68.0103 194.341 68.899C193.911 69.7877 193.696 70.92 193.696 72.296V83.906H186.988V60.772H193.395V67.093L192.191 65.244C192.993 63.6673 194.126 62.4777 195.588 61.675C197.078 60.8437 198.77 60.428 200.662 60.428C202.783 60.428 204.632 60.9727 206.209 62.062C207.814 63.1227 208.875 64.7567 209.391 66.964L207.026 66.319C207.8 64.513 209.032 63.0797 210.724 62.019C212.444 60.9583 214.407 60.428 216.615 60.428ZM241.848 84.25C239.928 84.25 238.208 83.8773 236.688 83.132C235.198 82.3867 234.037 81.2543 233.205 79.735C232.374 78.187 231.958 76.2233 231.958 73.844V60.772H238.666V72.855C238.666 74.7757 239.068 76.1947 239.87 77.112C240.702 78.0007 241.863 78.445 243.353 78.445C244.385 78.445 245.303 78.23 246.105 77.8C246.908 77.3413 247.539 76.6533 247.997 75.736C248.456 74.79 248.685 73.6147 248.685 72.21V60.772H255.393V83.906H249.029V77.542L250.19 79.391C249.416 80.9963 248.27 82.2147 246.75 83.046C245.26 83.8487 243.626 84.25 241.848 84.25ZM271.541 84.25C269.362 84.25 267.398 83.7627 265.65 82.788C263.901 81.7847 262.511 80.3943 261.479 78.617C260.475 76.8397 259.974 74.747 259.974 72.339C259.974 69.9023 260.475 67.7953 261.479 66.018C262.511 64.2407 263.901 62.8647 265.65 61.89C267.398 60.9153 269.362 60.428 271.541 60.428C273.49 60.428 275.196 60.858 276.658 61.718C278.12 62.578 279.252 63.8823 280.055 65.631C280.857 67.3797 281.259 69.6157 281.259 72.339C281.259 75.0337 280.872 77.2697 280.098 79.047C279.324 80.7957 278.206 82.1 276.744 82.96C275.31 83.82 273.576 84.25 271.541 84.25ZM272.702 78.746C273.791 78.746 274.78 78.488 275.669 77.972C276.557 77.456 277.26 76.725 277.776 75.779C278.32 74.8043 278.593 73.6577 278.593 72.339C278.593 70.9917 278.32 69.845 277.776 68.899C277.26 67.953 276.557 67.222 275.669 66.706C274.78 66.19 273.791 65.932 272.702 65.932C271.584 65.932 270.58 66.19 269.692 66.706C268.803 67.222 268.086 67.953 267.542 68.899C267.026 69.845 266.768 70.9917 266.768 72.339C266.768 73.6577 267.026 74.8043 267.542 75.779C268.086 76.725 268.803 77.456 269.692 77.972C270.58 78.488 271.584 78.746 272.702 78.746ZM278.765 83.906V79.176L278.894 72.296L278.464 65.459V52H285.172V83.906H278.765ZM305.57 83.906V79.391L305.14 78.402V70.318C305.14 68.8847 304.696 67.7667 303.807 66.964C302.947 66.1613 301.614 65.76 299.808 65.76C298.576 65.76 297.357 65.9607 296.153 66.362C294.978 66.7347 293.975 67.2507 293.143 67.91L290.735 63.223C291.997 62.3343 293.516 61.6463 295.293 61.159C297.071 60.6717 298.877 60.428 300.711 60.428C304.237 60.428 306.975 61.2593 308.924 62.922C310.874 64.5847 311.848 67.179 311.848 70.705V83.906H305.57ZM298.518 84.25C296.712 84.25 295.164 83.949 293.874 83.347C292.584 82.7163 291.595 81.8707 290.907 80.81C290.219 79.7493 289.875 78.5597 289.875 77.241C289.875 75.865 290.205 74.661 290.864 73.629C291.552 72.597 292.627 71.7943 294.089 71.221C295.551 70.619 297.458 70.318 299.808 70.318H305.957V74.231H300.539C298.963 74.231 297.873 74.489 297.271 75.005C296.698 75.521 296.411 76.166 296.411 76.94C296.411 77.8 296.741 78.488 297.4 79.004C298.088 79.4913 299.02 79.735 300.195 79.735C301.313 79.735 302.317 79.477 303.205 78.961C304.094 78.4163 304.739 77.628 305.14 76.596L306.172 79.692C305.685 81.1827 304.796 82.315 303.506 83.089C302.216 83.863 300.554 84.25 298.518 84.25ZM331.98 60.428C333.815 60.428 335.449 60.8007 336.882 61.546C338.344 62.2627 339.491 63.3807 340.322 64.9C341.154 66.3907 341.569 68.3113 341.569 70.662V83.906H334.861V71.694C334.861 69.8307 334.446 68.4547 333.614 67.566C332.812 66.6773 331.665 66.233 330.174 66.233C329.114 66.233 328.153 66.4623 327.293 66.921C326.462 67.351 325.803 68.0247 325.315 68.942C324.857 69.8593 324.627 71.0347 324.627 72.468V83.906H317.919V52H324.627V67.179L323.122 65.244C323.954 63.696 325.143 62.5063 326.691 61.675C328.239 60.8437 330.002 60.428 331.98 60.428ZM348.123 73.457L346.79 53.806H354.788L353.455 73.457H348.123ZM350.789 84.25C349.585 84.25 348.596 83.863 347.822 83.089C347.048 82.315 346.661 81.3977 346.661 80.337C346.661 79.2477 347.048 78.3447 347.822 77.628C348.596 76.8827 349.585 76.51 350.789 76.51C352.021 76.51 353.01 76.8827 353.756 77.628C354.53 78.3447 354.917 79.2477 354.917 80.337C354.917 81.3977 354.53 82.315 353.756 83.089C353.01 83.863 352.021 84.25 350.789 84.25Z" fill="#202226"/>
</svg>
