<svg xmlns="http://www.w3.org/2000/svg" fill="none" viewBox="20.65 6.01 83.75 87.48">
<path fill-rule="evenodd" clip-rule="evenodd" d="M21.3098 59.2907C20.5635 63.8745 19.8353 68.3459 22.8192 71.5954C25.7383 74.7743 29.9121 74.5347 34.1868 74.2894C37.731 74.0863 41.3444 73.879 44.3694 75.6124C46.9646 77.0993 48.4677 80.1477 49.9484 83.151C51.614 86.5291 53.2515 89.8503 56.384 90.8288C59.6398 91.8459 62.3202 89.7983 65.0711 87.6969C67.1428 86.1144 69.2545 84.5013 71.6817 84.1439C74.4364 83.7383 77.5462 84.695 80.591 85.6317C84.8853 86.953 89.0507 88.2344 91.9083 85.5979C95.0789 82.6725 93.6137 78.8627 92.0068 74.6853C90.6483 71.1531 89.1885 67.3581 90.3444 63.6122C91.3386 60.3901 93.619 58.7246 96.0887 56.9208C98.7552 54.9731 101.642 52.8646 103.368 48.4616C105.923 41.9443 103.41 33.2423 99.5012 26.7832C92.3609 14.9835 79.6338 9.98197 64.4352 7.0128C49.2367 4.04363 39.3643 7.78162 30.5455 16.9034C19.724 28.0968 19.5921 34.1227 21.8687 51.1092C22.2178 53.7144 21.7606 56.5232 21.3098 59.2907ZM37.283 83.5672C40.1986 81.8633 43.7356 82.4898 45.1831 84.9668C46.6306 87.4437 45.4404 90.8328 42.5247 92.5367C39.609 94.2406 36.072 93.614 34.6245 91.1372C33.177 88.6601 34.3673 85.2711 37.283 83.5672Z" fill="#99FF9C"/>
<path d="M64.9714 65.7685L85.8134 44.9523C86.1929 44.5564 86.4904 44.0895 86.6888 43.5785C87.1057 42.5649 87.1057 41.428 86.6888 40.4144C86.4904 39.9034 86.1929 39.4365 85.8134 39.0406L64.9714 18.2244C64.5828 17.8362 64.1214 17.5283 63.6136 17.3182C63.1058 17.1081 62.5615 17 62.0119 17C60.9018 17 59.8372 17.4404 59.0523 18.2244C58.2674 19.0083 57.8264 20.0716 57.8264 21.1803C57.8264 22.2889 58.2674 23.3522 59.0523 24.1362L72.808 37.8332H41.1699C40.0643 37.8332 39.0041 38.2718 38.2224 39.0526C37.4406 39.8334 37.0015 40.8923 37.0015 41.9964C37.0015 43.1006 37.4406 44.1595 38.2224 44.9403C39.0041 45.7211 40.0643 46.1597 41.1699 46.1597H72.808L59.0523 59.8567C58.6616 60.2438 58.3515 60.7042 58.1399 61.2115C57.9282 61.7189 57.8193 62.263 57.8193 62.8126C57.8193 63.3622 57.9282 63.9064 58.1399 64.4137C58.3515 64.921 58.6616 65.3815 59.0523 65.7685C59.4398 66.1587 59.9008 66.4685 60.4088 66.6798C60.9167 66.8912 61.4616 67 62.0119 67C62.5621 67 63.107 66.8912 63.6149 66.6798C64.1229 66.4685 64.5839 66.1587 64.9714 65.7685Z" fill="black"/>
</svg>