<svg width="23" height="18" viewBox="0 0 23 18" fill="none" xmlns="http://www.w3.org/2000/svg">
<path fill-rule="evenodd" clip-rule="evenodd" d="M0.0951449 0.77125C0.189825 0.542893 0.35009 0.347737 0.555676 0.210457C0.761262 0.073177 1.00294 -6.21688e-05 1.25014 3.95963e-08H13.7501C14.8992 2.24739e-08 16.037 0.226325 17.0986 0.666054C18.1602 1.10578 19.1248 1.7503 19.9373 2.56282C20.7498 3.37533 21.3944 4.33992 21.8341 5.40152C22.2738 6.46312 22.5001 7.60093 22.5001 8.75C22.5001 9.89907 22.2738 11.0369 21.8341 12.0985C21.3944 13.1601 20.7498 14.1247 19.9373 14.9372C19.1248 15.7497 18.1602 16.3942 17.0986 16.8339C16.037 17.2737 14.8992 17.5 13.7501 17.5H2.50014C2.16862 17.5 1.85068 17.3683 1.61626 17.1339C1.38184 16.8995 1.25014 16.5815 1.25014 16.25C1.25014 15.9185 1.38184 15.6005 1.61626 15.3661C1.85068 15.1317 2.16862 15 2.50014 15H13.7501C15.4077 15 16.9975 14.3415 18.1696 13.1694C19.3417 11.9973 20.0001 10.4076 20.0001 8.75C20.0001 7.0924 19.3417 5.50269 18.1696 4.33058C16.9975 3.15848 15.4077 2.5 13.7501 2.5H4.26764L6.50889 4.74125C6.73659 4.977 6.86259 5.29276 6.85974 5.6205C6.85689 5.94825 6.72543 6.26176 6.49367 6.49352C6.26191 6.72528 5.94839 6.85674 5.62065 6.85959C5.2929 6.86244 4.97715 6.73645 4.74139 6.50875L0.366395 2.13375C0.191479 1.95894 0.0723426 1.73618 0.0240589 1.49365C-0.0242249 1.25112 0.000513857 0.999718 0.0951449 0.77125Z" fill="black"/>
</svg>
