<svg width="321" height="91" viewBox="0 0 321 91" fill="none" xmlns="http://www.w3.org/2000/svg">
<path d="M11.4949 23.22L11.1079 15.179L25.5129 4.05312e-06H33.2529L20.2669 13.975L16.3969 18.103L11.4949 23.22ZM5.25992 30.1V4.05312e-06H12.1829V30.1H5.25992ZM25.8569 30.1L15.1499 16.985L19.7079 12.04L33.9839 30.1H25.8569ZM47.1322 30.444C44.4948 30.444 42.1728 29.928 40.1662 28.896C38.1882 27.864 36.6545 26.4593 35.5652 24.682C34.4758 22.876 33.9312 20.8263 33.9312 18.533C33.9312 16.211 34.4615 14.1613 35.5222 12.384C36.6115 10.578 38.0878 9.17334 39.9512 8.17C41.8145 7.13801 43.9215 6.62201 46.2722 6.62201C48.5368 6.62201 50.5722 7.10934 52.3782 8.08401C54.2128 9.03 55.6605 10.406 56.7212 12.212C57.7818 13.9893 58.3122 16.125 58.3122 18.619C58.3122 18.877 58.2978 19.178 58.2692 19.522C58.2405 19.8373 58.2118 20.1383 58.1832 20.425H39.3922V16.512H54.6572L52.0772 17.673C52.0772 16.469 51.8335 15.4227 51.3462 14.534C50.8588 13.6453 50.1852 12.9573 49.3252 12.47C48.4652 11.954 47.4618 11.696 46.3152 11.696C45.1685 11.696 44.1508 11.954 43.2622 12.47C42.4022 12.9573 41.7285 13.6597 41.2412 14.577C40.7538 15.4657 40.5102 16.5263 40.5102 17.759V18.791C40.5102 20.0523 40.7825 21.1703 41.3272 22.145C41.9005 23.091 42.6888 23.822 43.6922 24.338C44.7242 24.8253 45.9282 25.069 47.3042 25.069C48.5368 25.069 49.6118 24.8827 50.5292 24.51C51.4752 24.1373 52.3352 23.5783 53.1092 22.833L56.6782 26.703C55.6175 27.907 54.2845 28.8387 52.6792 29.498C51.0738 30.1287 49.2248 30.444 47.1322 30.444ZM76.3382 30.1V25.585L75.9082 24.596V16.512C75.9082 15.0787 75.4639 13.9607 74.5752 13.158C73.7152 12.3553 72.3822 11.954 70.5762 11.954C69.3436 11.954 68.1252 12.1547 66.9212 12.556C65.7459 12.9287 64.7426 13.4447 63.9112 14.104L61.5032 9.417C62.7646 8.52834 64.2839 7.84034 66.0612 7.353C67.8386 6.86567 69.6446 6.62201 71.4792 6.62201C75.0052 6.62201 77.7429 7.45334 79.6922 9.116C81.6416 10.7787 82.6162 13.373 82.6162 16.899V30.1H76.3382ZM69.2862 30.444C67.4802 30.444 65.9322 30.143 64.6422 29.541C63.3522 28.9103 62.3632 28.0647 61.6752 27.004C60.9872 25.9433 60.6432 24.7537 60.6432 23.435C60.6432 22.059 60.9729 20.855 61.6322 19.823C62.3202 18.791 63.3952 17.9883 64.8572 17.415C66.3192 16.813 68.2256 16.512 70.5762 16.512H76.7252V20.425H71.3072C69.7306 20.425 68.6412 20.683 68.0392 21.199C67.4659 21.715 67.1792 22.36 67.1792 23.134C67.1792 23.994 67.5089 24.682 68.1682 25.198C68.8562 25.6853 69.7879 25.929 70.9632 25.929C72.0812 25.929 73.0846 25.671 73.9732 25.155C74.8619 24.6103 75.5069 23.822 75.9082 22.79L76.9402 25.886C76.4529 27.3767 75.5642 28.509 74.2742 29.283C72.9842 30.057 71.3216 30.444 69.2862 30.444ZM118.314 6.62201C120.149 6.62201 121.769 6.99467 123.173 7.74C124.607 8.45667 125.725 9.57467 126.527 11.094C127.359 12.5847 127.774 14.5053 127.774 16.856V30.1H121.066V17.888C121.066 16.0247 120.679 14.6487 119.905 13.76C119.131 12.8713 118.042 12.427 116.637 12.427C115.663 12.427 114.788 12.6563 114.014 13.115C113.24 13.545 112.638 14.2043 112.208 15.093C111.778 15.9817 111.563 17.114 111.563 18.49V30.1H104.855V17.888C104.855 16.0247 104.468 14.6487 103.694 13.76C102.949 12.8713 101.874 12.427 100.469 12.427C99.4946 12.427 98.6203 12.6563 97.8463 13.115C97.0723 13.545 96.4703 14.2043 96.0403 15.093C95.6103 15.9817 95.3953 17.114 95.3953 18.49V30.1H88.6873V6.966H95.0943V13.287L93.8903 11.438C94.693 9.86134 95.8253 8.67167 97.2873 7.86901C98.778 7.03767 100.469 6.62201 102.361 6.62201C104.483 6.62201 106.332 7.16667 107.908 8.25601C109.514 9.31667 110.574 10.9507 111.09 13.158L108.725 12.513C109.499 10.707 110.732 9.27367 112.423 8.21301C114.143 7.15234 116.107 6.62201 118.314 6.62201ZM147.977 30.1V25.585L147.547 24.596V16.512C147.547 15.0787 147.103 13.9607 146.214 13.158C145.354 12.3553 144.021 11.954 142.215 11.954C140.982 11.954 139.764 12.1547 138.56 12.556C137.385 12.9287 136.381 13.4447 135.55 14.104L133.142 9.417C134.403 8.52834 135.923 7.84034 137.7 7.353C139.477 6.86567 141.283 6.62201 143.118 6.62201C146.644 6.62201 149.382 7.45334 151.331 9.116C153.28 10.7787 154.255 13.373 154.255 16.899V30.1H147.977ZM140.925 30.444C139.119 30.444 137.571 30.143 136.281 29.541C134.991 28.9103 134.002 28.0647 133.314 27.004C132.626 25.9433 132.282 24.7537 132.282 23.435C132.282 22.059 132.612 20.855 133.271 19.823C133.959 18.791 135.034 17.9883 136.496 17.415C137.958 16.813 139.864 16.512 142.215 16.512H148.364V20.425H142.946C141.369 20.425 140.28 20.683 139.678 21.199C139.105 21.715 138.818 22.36 138.818 23.134C138.818 23.994 139.148 24.682 139.807 25.198C140.495 25.6853 141.427 25.929 142.602 25.929C143.72 25.929 144.723 25.671 145.612 25.155C146.501 24.6103 147.146 23.822 147.547 22.79L148.579 25.886C148.092 27.3767 147.203 28.509 145.913 29.283C144.623 30.057 142.96 30.444 140.925 30.444ZM174.387 6.62201C176.222 6.62201 177.856 6.99467 179.289 7.74C180.751 8.45667 181.898 9.57467 182.729 11.094C183.56 12.5847 183.976 14.5053 183.976 16.856V30.1H177.268V17.888C177.268 16.0247 176.852 14.6487 176.021 13.76C175.218 12.8713 174.072 12.427 172.581 12.427C171.52 12.427 170.56 12.6563 169.7 13.115C168.869 13.545 168.209 14.2187 167.722 15.136C167.263 16.0533 167.034 17.2287 167.034 18.662V30.1H160.326V6.966H166.733V13.373L165.529 11.438C166.36 9.89 167.55 8.70034 169.098 7.86901C170.646 7.03767 172.409 6.62201 174.387 6.62201ZM204.246 30.1V25.585L203.816 24.596V16.512C203.816 15.0787 203.372 13.9607 202.483 13.158C201.623 12.3553 200.29 11.954 198.484 11.954C197.252 11.954 196.033 12.1547 194.829 12.556C193.654 12.9287 192.651 13.4447 191.819 14.104L189.411 9.417C190.673 8.52834 192.192 7.84034 193.969 7.353C195.747 6.86567 197.553 6.62201 199.387 6.62201C202.913 6.62201 205.651 7.45334 207.6 9.116C209.55 10.7787 210.524 13.373 210.524 16.899V30.1H204.246ZM197.194 30.444C195.388 30.444 193.84 30.143 192.55 29.541C191.26 28.9103 190.271 28.0647 189.583 27.004C188.895 25.9433 188.551 24.7537 188.551 23.435C188.551 22.059 188.881 20.855 189.54 19.823C190.228 18.791 191.303 17.9883 192.765 17.415C194.227 16.813 196.134 16.512 198.484 16.512H204.633V20.425H199.215C197.639 20.425 196.549 20.683 195.947 21.199C195.374 21.715 195.087 22.36 195.087 23.134C195.087 23.994 195.417 24.682 196.076 25.198C196.764 25.6853 197.696 25.929 198.871 25.929C199.989 25.929 200.993 25.671 201.881 25.155C202.77 24.6103 203.415 23.822 203.816 22.79L204.848 25.886C204.361 27.3767 203.472 28.509 202.182 29.283C200.892 30.057 199.23 30.444 197.194 30.444ZM230.657 6.62201C232.491 6.62201 234.125 6.99467 235.559 7.74C237.021 8.45667 238.167 9.57467 238.999 11.094C239.83 12.5847 240.246 14.5053 240.246 16.856V30.1H233.538V17.888C233.538 16.0247 233.122 14.6487 232.291 13.76C231.488 12.8713 230.341 12.427 228.851 12.427C227.79 12.427 226.83 12.6563 225.97 13.115C225.138 13.545 224.479 14.2187 223.992 15.136C223.533 16.0533 223.304 17.2287 223.304 18.662V30.1H216.596V6.966H223.003V13.373L221.799 11.438C222.63 9.89 223.82 8.70034 225.368 7.86901C226.916 7.03767 228.679 6.62201 230.657 6.62201ZM275.953 6.62201C277.788 6.62201 279.407 6.99467 280.812 7.74C282.245 8.45667 283.363 9.57467 284.166 11.094C284.997 12.5847 285.413 14.5053 285.413 16.856V30.1H278.705V17.888C278.705 16.0247 278.318 14.6487 277.544 13.76C276.77 12.8713 275.681 12.427 274.276 12.427C273.301 12.427 272.427 12.6563 271.653 13.115C270.879 13.545 270.277 14.2043 269.847 15.093C269.417 15.9817 269.202 17.114 269.202 18.49V30.1H262.494V17.888C262.494 16.0247 262.107 14.6487 261.333 13.76C260.588 12.8713 259.513 12.427 258.108 12.427C257.133 12.427 256.259 12.6563 255.485 13.115C254.711 13.545 254.109 14.2043 253.679 15.093C253.249 15.9817 253.034 17.114 253.034 18.49V30.1H246.326V6.966H252.733V13.287L251.529 11.438C252.332 9.86134 253.464 8.67167 254.926 7.86901C256.417 7.03767 258.108 6.62201 260 6.62201C262.121 6.62201 263.97 7.16667 265.547 8.25601C267.152 9.31667 268.213 10.9507 268.729 13.158L266.364 12.513C267.138 10.707 268.371 9.27367 270.062 8.21301C271.782 7.15234 273.746 6.62201 275.953 6.62201ZM301.187 30.444C299.266 30.444 297.546 30.0713 296.027 29.326C294.536 28.5807 293.375 27.4483 292.544 25.929C291.712 24.381 291.297 22.4173 291.297 20.038V6.966H298.005V19.049C298.005 20.9697 298.406 22.3887 299.209 23.306C300.04 24.1947 301.201 24.639 302.692 24.639C303.724 24.639 304.641 24.424 305.444 23.994C306.246 23.5353 306.877 22.8473 307.336 21.93C307.794 20.984 308.024 19.8087 308.024 18.404V6.966H314.732V30.1H308.368V23.736L309.529 25.585C308.755 27.1903 307.608 28.4087 306.089 29.24C304.598 30.0427 302.964 30.444 301.187 30.444ZM13.6738 82.444C11.7245 82.444 10.0188 82.014 8.55681 81.154C7.09481 80.294 5.94814 78.9897 5.11681 77.241C4.31414 75.4637 3.91281 73.2277 3.91281 70.533C3.91281 67.8097 4.29981 65.5737 5.07381 63.825C5.84781 62.0763 6.96581 60.772 8.42781 59.912C9.88981 59.052 11.6385 58.622 13.6738 58.622C15.8525 58.622 17.8018 59.1237 19.5218 60.127C21.2705 61.1017 22.6465 62.4777 23.6498 64.255C24.6818 66.0323 25.1978 68.125 25.1978 70.533C25.1978 72.9697 24.6818 75.0767 23.6498 76.854C22.6465 78.6313 21.2705 80.0073 19.5218 80.982C17.8018 81.9567 15.8525 82.444 13.6738 82.444ZM-0.000191219 90.442V58.966H6.40681V63.696L6.27781 70.576L6.70781 77.413V90.442H-0.000191219ZM12.5128 76.94C13.6308 76.94 14.6198 76.682 15.4798 76.166C16.3685 75.65 17.0708 74.919 17.5868 73.973C18.1315 72.9983 18.4038 71.8517 18.4038 70.533C18.4038 69.1857 18.1315 68.039 17.5868 67.093C17.0708 66.147 16.3685 65.416 15.4798 64.9C14.6198 64.384 13.6308 64.126 12.5128 64.126C11.3948 64.126 10.3915 64.384 9.50281 64.9C8.61414 65.416 7.91181 66.147 7.39581 67.093C6.87981 68.039 6.62181 69.1857 6.62181 70.533C6.62181 71.8517 6.87981 72.9983 7.39581 73.973C7.91181 74.919 8.61414 75.65 9.50281 76.166C10.3915 76.682 11.3948 76.94 12.5128 76.94ZM29.6883 82.1V58.966H36.0953V65.502L35.1923 63.61C35.8803 61.976 36.984 60.7433 38.5033 59.912C40.0226 59.052 41.8716 58.622 44.0503 58.622V64.814C43.7636 64.7853 43.5056 64.771 43.2763 64.771C43.047 64.7423 42.8033 64.728 42.5453 64.728C40.7106 64.728 39.22 65.2583 38.0733 66.319C36.9553 67.351 36.3963 68.9707 36.3963 71.178V82.1H29.6883ZM48.0809 82.1V58.966H54.7889V82.1H48.0809ZM51.4349 55.741C50.2022 55.741 49.1989 55.3827 48.4249 54.666C47.6509 53.9493 47.2639 53.0607 47.2639 52C47.2639 50.9393 47.6509 50.0507 48.4249 49.334C49.1989 48.6173 50.2022 48.259 51.4349 48.259C52.6675 48.259 53.6709 48.603 54.4449 49.291C55.2189 49.9503 55.6059 50.8103 55.6059 51.871C55.6059 52.989 55.2189 53.9207 54.4449 54.666C53.6995 55.3827 52.6962 55.741 51.4349 55.741ZM72.0225 82.444C69.5571 82.444 67.3641 81.928 65.4435 80.896C63.5515 79.864 62.0465 78.4593 60.9285 76.682C59.8391 74.876 59.2945 72.8263 59.2945 70.533C59.2945 68.211 59.8391 66.1613 60.9285 64.384C62.0465 62.578 63.5515 61.1733 65.4435 60.17C67.3641 59.138 69.5571 58.622 72.0225 58.622C74.4591 58.622 76.6378 59.138 78.5585 60.17C80.4791 61.1733 81.9841 62.5637 83.0735 64.341C84.1628 66.1183 84.7075 68.1823 84.7075 70.533C84.7075 72.8263 84.1628 74.876 83.0735 76.682C81.9841 78.4593 80.4791 79.864 78.5585 80.896C76.6378 81.928 74.4591 82.444 72.0225 82.444ZM72.0225 76.94C73.1405 76.94 74.1438 76.682 75.0325 76.166C75.9211 75.65 76.6235 74.919 77.1395 73.973C77.6555 72.9983 77.9135 71.8517 77.9135 70.533C77.9135 69.1857 77.6555 68.039 77.1395 67.093C76.6235 66.147 75.9211 65.416 75.0325 64.9C74.1438 64.384 73.1405 64.126 72.0225 64.126C70.9045 64.126 69.9011 64.384 69.0125 64.9C68.1238 65.416 67.4071 66.147 66.8625 67.093C66.3465 68.039 66.0885 69.1857 66.0885 70.533C66.0885 71.8517 66.3465 72.9983 66.8625 73.973C67.4071 74.919 68.1238 75.65 69.0125 76.166C69.9011 76.682 70.9045 76.94 72.0225 76.94ZM89.1912 82.1V58.966H95.5982V65.502L94.6952 63.61C95.3832 61.976 96.4869 60.7433 98.0062 59.912C99.5255 59.052 101.375 58.622 103.553 58.622V64.814C103.267 64.7853 103.009 64.771 102.779 64.771C102.55 64.7423 102.306 64.728 102.048 64.728C100.214 64.728 98.7229 65.2583 97.5762 66.319C96.4582 67.351 95.8992 68.9707 95.8992 71.178V82.1H89.1912ZM107.584 82.1V58.966H114.292V82.1H107.584ZM110.938 55.741C109.705 55.741 108.702 55.3827 107.928 54.666C107.154 53.9493 106.767 53.0607 106.767 52C106.767 50.9393 107.154 50.0507 107.928 49.334C108.702 48.6173 109.705 48.259 110.938 48.259C112.17 48.259 113.174 48.603 113.948 49.291C114.722 49.9503 115.109 50.8103 115.109 51.871C115.109 52.989 114.722 53.9207 113.948 54.666C113.202 55.3827 112.199 55.741 110.938 55.741ZM129.977 82.444C127.254 82.444 125.133 81.756 123.613 80.38C122.094 78.9753 121.334 76.897 121.334 74.145V53.849H128.042V74.059C128.042 75.0337 128.3 75.7933 128.816 76.338C129.332 76.854 130.035 77.112 130.923 77.112C131.984 77.112 132.887 76.8253 133.632 76.252L135.438 80.982C134.75 81.4693 133.919 81.842 132.944 82.1C131.998 82.3293 131.009 82.444 129.977 82.444ZM117.765 64.642V59.482H133.804V64.642H117.765ZM153.394 82.1V77.585L152.964 76.596V68.512C152.964 67.0787 152.52 65.9607 151.631 65.158C150.771 64.3553 149.438 63.954 147.632 63.954C146.399 63.954 145.181 64.1547 143.977 64.556C142.802 64.9287 141.798 65.4447 140.967 66.104L138.559 61.417C139.82 60.5283 141.34 59.8403 143.117 59.353C144.894 58.8657 146.7 58.622 148.535 58.622C152.061 58.622 154.799 59.4533 156.748 61.116C158.697 62.7787 159.672 65.373 159.672 68.899V82.1H153.394ZM146.342 82.444C144.536 82.444 142.988 82.143 141.698 81.541C140.408 80.9103 139.419 80.0647 138.731 79.004C138.043 77.9433 137.699 76.7537 137.699 75.435C137.699 74.059 138.029 72.855 138.688 71.823C139.376 70.791 140.451 69.9883 141.913 69.415C143.375 68.813 145.281 68.512 147.632 68.512H153.781V72.425H148.363C146.786 72.425 145.697 72.683 145.095 73.199C144.522 73.715 144.235 74.36 144.235 75.134C144.235 75.994 144.565 76.682 145.224 77.198C145.912 77.6853 146.844 77.929 148.019 77.929C149.137 77.929 150.14 77.671 151.029 77.155C151.918 76.6103 152.563 75.822 152.964 74.79L153.996 77.886C153.509 79.3767 152.62 80.509 151.33 81.283C150.04 82.057 148.377 82.444 146.342 82.444ZM173.526 82.444C171.548 82.444 169.642 82.2147 167.807 81.756C166.001 81.2687 164.568 80.6667 163.507 79.95L165.743 75.134C166.804 75.7933 168.051 76.338 169.484 76.768C170.946 77.1693 172.379 77.37 173.784 77.37C175.332 77.37 176.421 77.1837 177.052 76.811C177.711 76.4383 178.041 75.9223 178.041 75.263C178.041 74.7183 177.783 74.317 177.267 74.059C176.78 73.7723 176.12 73.5573 175.289 73.414C174.458 73.2707 173.54 73.1273 172.537 72.984C171.562 72.8407 170.573 72.6543 169.57 72.425C168.567 72.167 167.649 71.7943 166.818 71.307C165.987 70.8197 165.313 70.1603 164.797 69.329C164.31 68.4977 164.066 67.4227 164.066 66.104C164.066 64.642 164.482 63.352 165.313 62.234C166.173 61.116 167.406 60.2417 169.011 59.611C170.616 58.9517 172.537 58.622 174.773 58.622C176.35 58.622 177.955 58.794 179.589 59.138C181.223 59.482 182.585 59.9837 183.674 60.643L181.438 65.416C180.32 64.7567 179.188 64.3123 178.041 64.083C176.923 63.825 175.834 63.696 174.773 63.696C173.282 63.696 172.193 63.8967 171.505 64.298C170.817 64.6993 170.473 65.2153 170.473 65.846C170.473 66.4193 170.717 66.8493 171.204 67.136C171.72 67.4227 172.394 67.652 173.225 67.824C174.056 67.996 174.959 68.1537 175.934 68.297C176.937 68.4117 177.941 68.598 178.944 68.856C179.947 69.114 180.85 69.4867 181.653 69.974C182.484 70.4327 183.158 71.0777 183.674 71.909C184.19 72.7117 184.448 73.7723 184.448 75.091C184.448 76.5243 184.018 77.8 183.158 78.918C182.298 80.0073 181.051 80.8673 179.417 81.498C177.812 82.1287 175.848 82.444 173.526 82.444ZM206.311 77.37L206.483 69.2L217.276 58.966H225.274L214.911 69.501L211.428 72.339L206.311 77.37ZM200.764 82.1V50.194H207.472V82.1H200.764ZM218.007 82.1L210.181 72.382L214.395 67.179L226.134 82.1H218.007ZM242.921 82.1V77.585L242.491 76.596V68.512C242.491 67.0787 242.047 65.9607 241.158 65.158C240.298 64.3553 238.965 63.954 237.159 63.954C235.927 63.954 234.708 64.1547 233.504 64.556C232.329 64.9287 231.326 65.4447 230.494 66.104L228.086 61.417C229.348 60.5283 230.867 59.8403 232.644 59.353C234.422 58.8657 236.228 58.622 238.062 58.622C241.588 58.622 244.326 59.4533 246.275 61.116C248.225 62.7787 249.199 65.373 249.199 68.899V82.1H242.921ZM235.869 82.444C234.063 82.444 232.515 82.143 231.225 81.541C229.935 80.9103 228.946 80.0647 228.258 79.004C227.57 77.9433 227.226 76.7537 227.226 75.435C227.226 74.059 227.556 72.855 228.215 71.823C228.903 70.791 229.978 69.9883 231.44 69.415C232.902 68.813 234.809 68.512 237.159 68.512H243.308V72.425H237.89C236.314 72.425 235.224 72.683 234.622 73.199C234.049 73.715 233.762 74.36 233.762 75.134C233.762 75.994 234.092 76.682 234.751 77.198C235.439 77.6853 236.371 77.929 237.546 77.929C238.664 77.929 239.668 77.671 240.556 77.155C241.445 76.6103 242.09 75.822 242.491 74.79L243.523 77.886C243.036 79.3767 242.147 80.509 240.857 81.283C239.567 82.057 237.905 82.444 235.869 82.444ZM284.897 58.622C286.732 58.622 288.352 58.9947 289.756 59.74C291.19 60.4567 292.308 61.5747 293.11 63.094C293.942 64.5847 294.357 66.5053 294.357 68.856V82.1H287.649V69.888C287.649 68.0247 287.262 66.6487 286.488 65.76C285.714 64.8713 284.625 64.427 283.22 64.427C282.246 64.427 281.371 64.6563 280.597 65.115C279.823 65.545 279.221 66.2043 278.791 67.093C278.361 67.9817 278.146 69.114 278.146 70.49V82.1H271.438V69.888C271.438 68.0247 271.051 66.6487 270.277 65.76C269.532 64.8713 268.457 64.427 267.052 64.427C266.078 64.427 265.203 64.6563 264.429 65.115C263.655 65.545 263.053 66.2043 262.623 67.093C262.193 67.9817 261.978 69.114 261.978 70.49V82.1H255.27V58.966H261.677V65.287L260.473 63.438C261.276 61.8613 262.408 60.6717 263.87 59.869C265.361 59.0377 267.052 58.622 268.944 58.622C271.066 58.622 272.915 59.1667 274.491 60.256C276.097 61.3167 277.157 62.9507 277.673 65.158L275.308 64.513C276.082 62.707 277.315 61.2737 279.006 60.213C280.726 59.1523 282.69 58.622 284.897 58.622ZM300.37 82.1V58.966H307.078V82.1H300.37ZM303.724 55.741C302.491 55.741 301.488 55.3827 300.714 54.666C299.94 53.9493 299.553 53.0607 299.553 52C299.553 50.9393 299.94 50.0507 300.714 49.334C301.488 48.6173 302.491 48.259 303.724 48.259C304.957 48.259 305.96 48.603 306.734 49.291C307.508 49.9503 307.895 50.8103 307.895 51.871C307.895 52.989 307.508 53.9207 306.734 54.666C305.989 55.3827 304.985 55.741 303.724 55.741ZM313.777 71.651L312.444 52H320.442L319.109 71.651H313.777ZM316.443 82.444C315.239 82.444 314.25 82.057 313.476 81.283C312.702 80.509 312.315 79.5917 312.315 78.531C312.315 77.4417 312.702 76.5387 313.476 75.822C314.25 75.0767 315.239 74.704 316.443 74.704C317.675 74.704 318.664 75.0767 319.41 75.822C320.184 76.5387 320.571 77.4417 320.571 78.531C320.571 79.5917 320.184 80.509 319.41 81.283C318.664 82.057 317.675 82.444 316.443 82.444Z" fill="#202226"/>
</svg>
