<svg width="200" height="200" viewBox="0 0 200 200" fill="none" xmlns="http://www.w3.org/2000/svg">
<rect width="200" height="200" rx="100" fill="#FFBB58"/>
<path d="M129.641 52.5C127.673 52.5001 125.9 53.5891 124.985 55.3438H124.984L113.591 75.4824L113.584 75.4961L113.577 75.5088C112.436 77.8348 112.961 80.7908 114.787 82.6611L114.968 82.8389L120.12 87.6777L120.171 87.7402C120.232 87.8259 120.321 87.9781 120.408 88.1738C120.514 88.4125 120.566 88.6012 120.576 88.6797C120.576 88.6845 120.575 88.6897 120.574 88.6953C120.568 88.7379 120.556 88.8058 120.538 88.8984C120.501 89.0837 120.435 89.3701 120.314 89.7549C120.073 90.5245 119.618 91.6902 118.765 93.2354C117.057 96.3263 113.755 100.936 107.381 106.922C100.996 112.921 96.0869 116.021 92.7852 117.62C91.1345 118.42 89.8847 118.845 89.0527 119.069C88.6368 119.182 88.3249 119.244 88.1191 119.278C88.0162 119.295 87.9394 119.306 87.8896 119.312C87.8803 119.313 87.8718 119.313 87.8643 119.313C87.8429 119.309 87.7949 119.3 87.7168 119.276C87.6153 119.245 87.4929 119.2 87.3672 119.148C87.0922 119.035 86.888 118.92 86.8281 118.866L80.7881 113.189L80.5488 112.977C79.3262 111.943 77.6675 111.371 75.9531 111.37C75.0476 111.364 74.151 111.534 73.3193 111.869L72.9668 112.022L72.9473 112.032L72.7783 112.121L72.7686 112.126L52.2871 123.463L52.0098 123.613C50.7425 124.342 49.8487 125.472 49.5303 126.809L49.4717 127.099L49.4707 127.101C49.218 128.606 49.7275 130.1 50.8252 131.256L51.0527 131.483L65.1045 144.683L65.1055 144.682C66.525 146.018 68.9652 147.15 70.9482 147.399L70.957 147.401V147.4C71.628 147.473 72.3032 147.505 72.9785 147.498V147.499L72.9805 147.498L72.9834 147.499V147.498C78.5124 147.497 98.1783 145.616 123.333 121.988C152.976 94.1373 150.541 73.7437 150.395 72.7305C150.125 70.8417 148.908 68.5365 147.479 67.2012L133.416 54.0205L133.218 53.8418C132.207 52.9772 130.948 52.5 129.641 52.5Z" fill="#E8E6D7" stroke="#E8E6D7"/>
<path d="M107.784 119.692C122.754 109.428 141.163 97.295 146.621 110.046C152.078 122.798 99.3949 177.184 94.7393 159.275C90.0837 141.365 179.183 139.055 179.183 139.055" stroke="#5D3B1F" stroke-width="5" stroke-linecap="round"/>
</svg>
