<svg width="367" height="351" viewBox="0 0 367 351" fill="none" xmlns="http://www.w3.org/2000/svg">
<circle cx="196" cy="155" r="152.5" fill="#F4F2E3" stroke="#E8E6D7" stroke-width="5"/>
<path d="M61.9687 268.963C58.8546 263.634 55.6147 252.772 46.9358 249.618C39.6729 246.978 36.2123 260.319 45.0056 275.621C66.8059 307.104 88.0356 315.903 107.525 322.986C127.014 330.07 137.594 327.118 138.942 323.411C140.289 319.704 136.336 312.295 104.636 300.773C72.937 289.252 65.0828 274.291 61.9687 268.963Z" fill="#E8E6D7"/>
<path d="M264.719 308.418C258.613 309.319 247.327 308.272 241.162 315.147C236.003 320.901 247.089 329.089 264.567 326.64C301.91 318.161 317.995 301.747 331.838 286.309C345.682 270.87 346.891 259.952 343.955 257.319C341.018 254.686 332.67 255.589 310.152 280.701C287.635 305.812 270.824 307.517 264.719 308.418Z" fill="#E8E6D7"/>
<path d="M208.274 142.735C203.895 175.085 201.893 193.294 199.431 225.943C224.514 227.499 238.758 227.773 265.078 225.219C268.849 226.462 271.429 192.155 275.704 155.533" stroke="black" stroke-width="5" stroke-linecap="round"/>
<path d="M158.006 139.36C159.24 139.98 160.743 139.481 161.362 138.247C161.981 137.013 161.483 135.511 160.249 134.891L159.128 137.126L158.006 139.36ZM111.386 121.064L112.733 123.17L112.733 123.17L111.386 121.064ZM100.448 205.937L97.95 206.041L98.0282 207.915L99.85 208.364L100.448 205.937ZM156.149 213.115L156.135 215.615L157.835 215.624L158.469 214.046L156.149 213.115ZM159.128 137.126C160.249 134.891 160.249 134.891 160.248 134.891C160.248 134.891 160.247 134.891 160.246 134.89C160.245 134.889 160.243 134.888 160.24 134.887C160.235 134.884 160.227 134.88 160.216 134.875C160.196 134.865 160.166 134.85 160.126 134.83C160.047 134.79 159.93 134.732 159.777 134.657C159.472 134.506 159.026 134.286 158.456 134.008C157.317 133.452 155.685 132.663 153.704 131.732C149.747 129.87 144.388 127.429 138.803 125.124C133.234 122.826 127.368 120.633 122.415 119.293C119.945 118.625 117.614 118.145 115.614 117.991C113.743 117.847 111.631 117.939 110.038 118.959L111.386 121.064L112.733 123.17C112.868 123.083 113.546 122.847 115.231 122.976C116.787 123.096 118.779 123.49 121.109 124.12C125.756 125.377 131.394 127.476 136.896 129.746C142.382 132.01 147.662 134.415 151.576 136.256C153.531 137.176 155.142 137.954 156.263 138.501C156.823 138.774 157.261 138.99 157.558 139.137C157.706 139.211 157.819 139.267 157.895 139.304C157.932 139.323 157.961 139.337 157.979 139.347C157.989 139.352 157.996 139.355 158 139.357C158.002 139.358 158.004 139.359 158.005 139.36C158.006 139.36 158.006 139.36 158.006 139.36C158.006 139.36 158.006 139.36 159.128 137.126ZM111.386 121.064L110.038 118.959C108.56 119.905 107.468 121.612 106.614 123.391C105.715 125.264 104.89 127.63 104.135 130.35C102.621 135.799 101.307 142.95 100.268 151.045C98.189 167.247 97.1764 187.5 97.95 206.041L100.448 205.937L102.946 205.832C102.184 187.582 103.183 167.612 105.228 151.682C106.251 143.711 107.527 136.819 108.952 131.688C109.666 129.118 110.399 127.06 111.121 125.554C111.889 123.956 112.483 123.33 112.733 123.17L111.386 121.064ZM100.448 205.937L99.85 208.364C121.695 213.743 134.085 215.491 156.135 215.615L156.149 213.115L156.163 210.615C134.551 210.494 122.553 208.805 101.046 203.509L100.448 205.937ZM156.149 213.115L158.469 214.046C165.695 196.035 166.551 176.958 167.716 142.83L165.217 142.744L162.719 142.659C161.546 177.039 160.662 195.151 153.828 212.184L156.149 213.115Z" fill="black"/>
<path d="M178.832 51.6916C94.112 34.4896 10.0367 263.891 186.176 275.473C362.316 287.055 337.299 61.038 249.556 60.8059" stroke="black" stroke-width="10" stroke-linecap="round"/>
<path d="M203.775 141.188C233.513 138.892 253.022 141.172 280.956 153.068" stroke="black" stroke-width="5" stroke-linecap="round"/>
<circle cx="140.624" cy="158" r="10" fill="black"/>
<circle cx="239.624" cy="169" r="10" fill="black"/>
<path d="M195.124 250C187.167 256.554 179.586 255.345 167.124 250" stroke="black" stroke-width="5" stroke-linecap="round"/>
<path d="M62.0156 187.743C66.8246 187.886 68.4563 186.918 69.1305 183.122C69.1503 183.011 69.1499 182.892 69.1317 182.782C59.1341 122.406 54.5969 100.364 76.7185 107.707C86.5835 110.906 89.1635 118.686 94.8828 132.763C94.9038 132.815 94.9213 132.871 94.9334 132.926C100.899 160.054 106.529 167.75 113.612 186.466C122.717 216.703 124.193 231.838 120.612 255.081C120.547 255.504 120.221 255.854 119.809 255.947C108.013 258.619 102.578 261.445 93.1936 266.564C83.7132 272.528 78.8132 274.256 71.0563 274.075C70.9768 274.073 70.8936 274.081 70.8152 274.098C57.6322 276.989 52.2645 274.848 49.2697 259.831C49.1987 259.475 48.9358 259.18 48.5947 259.075C34.4652 254.709 31.5657 248.807 31.4479 235.336C31.4461 235.121 31.374 234.905 31.2477 234.737C22.0364 222.43 21.4806 215.79 24.9727 204.508C25.022 204.348 25.1126 204.198 25.2296 204.079C38.3517 190.745 46.3799 186.773 62.0156 187.743Z" fill="#F4F2E3" stroke="black" stroke-width="10"/>
<path d="M88.3863 262.216C88.0287 262.783 87.9034 263.467 88.0358 264.114C88.1683 264.762 88.5476 265.321 89.0925 265.669C89.6373 266.017 90.3035 266.127 90.9466 265.975C91.5895 265.823 92.1567 265.422 92.5212 264.859C92.5212 264.859 92.5212 264.859 92.5212 264.859C93.7952 262.885 95.0065 260.856 96.0529 258.652C97.6853 255.175 99.2051 250.695 97.7184 246.174C96.1871 241.723 92.7456 239.17 89.6124 237.157C90.268 237.565 90.5383 238.369 90.2435 239.143C92.5405 232.953 95.6441 226.393 94.2794 218.51C92.4977 210.576 86.3842 206.263 81.3213 202.382C81.9192 202.815 82.2146 203.545 82.0331 204.355C82.7439 201.35 83.5923 198.298 83.5998 194.617C83.6208 192.134 82.872 188.964 80.8944 186.774C78.9638 184.576 76.6374 183.4 74.4498 182.48C75.2938 182.69 76.0803 183.396 76.3542 184.366C76.6942 185.299 76.264 186.878 75.411 187.583C79.7442 184.764 84.9912 183.95 90.2154 183.634C94.4314 183.392 98.7673 183.465 103.293 183.889C105.317 184.081 107.381 184.351 109.492 184.732C110.072 184.846 110.693 184.831 111.262 184.609C111.831 184.387 112.297 183.982 112.572 183.458C112.846 182.935 112.912 182.324 112.768 181.734C112.625 181.144 112.281 180.63 111.853 180.224C111.853 180.224 111.853 180.224 111.853 180.224C110.083 178.602 108.09 177.202 105.947 176.061C101.153 173.509 95.596 172.235 89.9418 172.566C82.9211 172.971 75.6048 175.964 70.3198 181.412C68.9116 182.574 68.238 184.945 68.7603 186.559C69.2014 188.213 70.5259 189.479 72.0354 189.885C75.5846 190.556 77.5704 191.597 77.6486 194.935C77.7115 197.321 77.0593 200.231 76.3937 203.142C76.0178 204.739 76.6377 206.333 77.8747 207.218C82.8375 210.771 87.8188 214.781 88.8742 219.853C89.9716 224.969 87.5893 231.302 85.3295 237.287C84.6656 238.964 85.293 240.877 86.7552 241.768C92.8275 245.134 94.8511 250.196 91.5095 256.584C90.6396 258.476 89.558 260.353 88.3863 262.216Z" fill="black"/>
<path d="M44.8564 221.593C44.4469 221.877 44.1075 222.278 43.9337 222.756C43.7598 223.235 43.7634 223.746 43.949 224.191C44.1346 224.636 44.4905 224.987 44.9438 225.178C45.3972 225.37 45.9084 225.381 46.3858 225.26C46.3858 225.26 46.3858 225.26 46.3858 225.26C46.8709 225.133 47.3337 225.013 47.816 224.879C54.55 223.065 61.2605 220.253 67.2395 216.355C68.8176 215.339 70.1618 213.946 71.2454 212.21C71.5413 211.744 71.7996 211.266 72.0605 210.75C72.2654 210.326 72.4373 209.882 72.4853 209.434C72.5331 208.985 72.4518 208.567 72.2325 208.231C72.0132 207.894 71.6684 207.658 71.2473 207.534C70.8263 207.41 70.3621 207.405 69.9037 207.44C69.9037 207.44 69.9037 207.44 69.9037 207.44C69.3465 207.489 68.8259 207.546 68.3023 207.639C66.3606 207.971 64.6485 208.621 63.1517 209.584C57.5008 213.263 51.8862 216.816 46.076 220.755C45.6629 221.035 45.2701 221.308 44.8564 221.593Z" fill="black"/>
<path d="M63.1955 250.752C62.8237 251.073 62.5177 251.487 62.3736 251.965C62.2294 252.442 62.2561 252.938 62.4559 253.36C62.6558 253.783 63.017 254.107 63.4682 254.279C63.9196 254.451 64.4213 254.45 64.8916 254.338C64.8916 254.338 64.8916 254.338 64.8916 254.338C65.2491 254.249 65.5891 254.165 65.9445 254.069C71.0397 252.757 76.1649 250.287 80.3616 246.886C81.3181 246.126 82.0098 245.054 82.4358 243.683C82.5688 243.266 82.6644 242.834 82.7495 242.363C82.8225 241.898 82.8846 241.443 82.8651 241.026C82.8446 240.609 82.7353 240.254 82.5128 239.98C82.2904 239.706 81.9691 239.531 81.5714 239.434C81.1747 239.338 80.7252 239.317 80.2647 239.305C80.2647 239.305 80.2647 239.305 80.2647 239.305C79.8018 239.299 79.3752 239.308 78.9588 239.352C77.5902 239.488 76.4812 239.898 75.6014 240.597C71.7523 243.701 68.0528 246.664 64.0136 250.053C63.7359 250.287 63.4738 250.514 63.1955 250.752Z" fill="black"/>
<path d="M344.968 39.0111C344.753 38.4529 344.415 37.9284 343.933 37.5607C343.452 37.193 342.875 37.0115 342.3 37.0585C341.724 37.1056 341.184 37.3785 340.769 37.8195C340.354 38.2606 340.105 38.8331 339.984 39.4188C339.984 39.4188 339.984 39.4188 339.984 39.4188C339.763 40.5092 339.57 41.5973 339.405 42.6831C338.686 47.4353 338.517 52.1424 338.898 56.8046C339.208 60.5952 339.795 64.3632 340.327 68.1357C340.858 71.9082 341.754 75.6509 342.254 79.426C343.167 86.3277 343.979 93.2377 344.821 100.145C344.951 101.207 345.081 102.269 345.212 103.33C345.291 103.962 345.627 104.547 346.13 104.957C346.635 105.367 347.265 105.569 347.9 105.517C348.534 105.465 349.123 105.163 349.555 104.676C349.985 104.19 350.221 103.559 350.196 102.923C350.196 102.923 350.196 102.923 350.196 102.923C350.153 101.854 350.109 100.785 350.064 99.7163C349.773 92.7638 349.451 85.8137 349.23 78.8553C349.11 75.0492 349.385 71.2106 349.297 67.4019C349.208 63.5932 349.175 59.7799 348.865 55.9893C348.484 51.3271 347.552 46.71 346.07 42.1379C345.731 41.0933 345.364 40.051 344.968 39.0111Z" fill="#FFE0B3"/>
<path d="M365.587 50.9881C365.843 50.7413 365.996 50.3812 366.026 50.0068C366.056 49.6313 365.961 49.2721 365.747 48.9886C365.533 48.7051 365.214 48.5149 364.844 48.4401C364.476 48.3665 364.088 48.4144 363.78 48.593C363.78 48.593 363.78 48.593 363.78 48.593C362.947 49.0787 362.122 49.5319 361.282 49.9853C359.668 50.8543 358.053 51.6824 356.471 52.5467C354.067 53.8617 351.611 55.0108 349.236 56.2748C342.296 59.9985 334.952 63.2046 327.147 65.4847C323.018 66.6948 318.817 67.7258 314.586 68.699C313.65 68.9137 312.745 69.1192 311.796 69.331C311.42 69.4154 311.088 69.6505 310.873 69.9777C310.658 70.3054 310.577 70.6983 310.649 71.077C310.722 71.4557 310.942 71.7912 311.262 72.0166C311.583 72.2416 311.978 72.338 312.359 72.2778C312.359 72.2778 312.359 72.2778 312.359 72.2778C313.326 72.1236 314.249 71.974 315.203 71.814C319.523 71.0902 323.828 70.2887 328.131 69.3619C336.215 67.6296 344.527 65.6062 352.056 61.5711C354.614 60.2097 356.95 58.4823 359.218 56.725C360.712 55.5675 362.108 54.3006 363.475 53.0084C364.187 52.3351 364.877 51.666 365.587 50.9881Z" fill="#FFE0B3"/>
<path d="M331.97 89.0726C331.806 88.5132 331.564 87.9645 331.182 87.5308C330.8 87.0971 330.312 86.8143 329.78 86.7379C329.247 86.6615 328.7 86.7959 328.211 87.1047C327.723 87.4135 327.336 87.8719 327.021 88.3626C327.021 88.3626 327.021 88.3626 327.021 88.3626C326.616 89.0003 326.24 89.6421 325.893 90.288C324.371 93.1151 323.397 96.0205 322.969 99.0044C322.621 101.431 322.547 103.896 322.419 106.354C322.291 108.811 322.525 111.321 322.365 113.774C322.073 118.259 321.68 122.729 321.317 127.204C321.261 127.892 321.206 128.579 321.152 129.267C321.104 129.889 321.316 130.521 321.717 131.023C322.119 131.525 322.678 131.854 323.294 131.943C323.91 132.031 324.54 131.872 325.067 131.503C325.593 131.135 325.973 130.587 326.102 129.978C326.244 129.302 326.384 128.626 326.524 127.951C327.434 123.555 328.313 119.154 329.294 114.768C329.83 112.369 330.76 110.026 331.328 107.632C331.896 105.237 332.519 102.851 332.867 100.425C333.295 97.4407 333.177 94.3784 332.512 91.2376C332.36 90.5201 332.179 89.7984 331.97 89.0726Z" fill="#FFD291"/>
<path d="M341.713 99.6484C341.977 99.4448 342.163 99.1128 342.246 98.759C342.329 98.4033 342.301 98.0548 342.154 97.7566C342.006 97.4585 341.746 97.2254 341.413 97.0749C341.081 96.9265 340.704 96.8729 340.382 96.9597C340.382 96.9597 340.382 96.9597 340.382 96.9597C339.813 97.1144 339.252 97.245 338.682 97.3741C337.588 97.6204 336.505 97.839 335.456 98.117C333.864 98.539 332.266 98.8309 330.746 99.3004C326.314 100.69 321.714 101.993 316.828 102.507C314.247 102.781 311.634 102.92 309.004 103.021C308.422 103.042 307.86 103.063 307.27 103.081C306.892 103.094 306.527 103.262 306.254 103.538C305.982 103.814 305.825 104.175 305.817 104.553C305.81 104.931 305.953 105.298 306.214 105.585C306.476 105.871 306.835 106.054 307.212 106.081C307.212 106.081 307.212 106.081 307.212 106.081C307.808 106.122 308.376 106.16 308.967 106.196C311.634 106.358 314.306 106.465 317.008 106.503C322.068 106.582 327.429 106.625 332.519 105.033C334.243 104.5 335.835 103.616 337.377 102.733C338.397 102.151 339.345 101.46 340.275 100.752C340.76 100.383 341.229 100.015 341.713 99.6484Z" fill="#FFD291"/>
<path d="M309.028 15.4227C308.636 14.9861 308.169 14.6004 307.623 14.3878C307.077 14.1752 306.502 14.1517 305.985 14.3363C305.468 14.5209 305.038 14.9035 304.75 15.4137C304.463 15.9241 304.345 16.5188 304.319 17.1045C304.319 17.1045 304.319 17.1045 304.319 17.1045C304.286 17.9331 304.28 18.7521 304.301 19.5614C304.393 23.1034 305.006 26.4596 306.138 29.6302C307.059 32.208 308.241 34.6924 309.371 37.1955C310.501 39.6986 311.975 42.0788 313.075 44.5927C315.086 49.1886 317.001 53.8187 318.944 58.4386C319.243 59.1487 319.542 59.8586 319.843 60.568C320.088 61.1451 320.568 61.611 321.158 61.8702C321.749 62.1291 322.401 62.1601 322.991 61.9494C323.581 61.7387 324.066 61.3015 324.359 60.7268C324.651 60.1526 324.728 59.4879 324.552 58.8862C324.552 58.8862 324.552 58.8862 324.552 58.8862C324.335 58.1469 324.117 57.408 323.898 56.6693C322.475 51.8635 321.023 47.068 319.667 42.2382C318.926 39.5963 318.558 36.8209 317.847 34.1683C317.135 31.5157 316.476 28.8444 315.555 26.2665C314.423 23.096 312.771 20.1112 310.598 17.3122C310.102 16.6726 309.578 16.0428 309.028 15.4227Z" fill="#FFD291"/>
<path d="M324.753 20.5039C324.908 20.2006 324.934 19.8177 324.852 19.4597C324.769 19.1004 324.585 18.7954 324.313 18.5915C324.041 18.3876 323.697 18.2958 323.329 18.3162C322.962 18.3378 322.602 18.4697 322.354 18.7033C322.354 18.7033 322.354 18.7033 322.354 18.7033C321.863 19.1676 321.369 19.6051 320.865 20.0454C319.897 20.8894 318.924 21.7018 318.005 22.5488C316.608 23.836 315.142 25.0021 313.815 26.284C309.952 30.0459 305.824 33.7223 301.069 36.7854C298.558 38.4071 295.95 39.9131 293.308 41.3881C292.723 41.714 292.158 42.0278 291.563 42.3545C291.23 42.5384 290.98 42.8551 290.863 43.2261C290.746 43.5976 290.773 43.993 290.941 44.3342C291.109 44.6754 291.407 44.9371 291.773 45.0706C292.138 45.2036 292.542 45.1976 292.891 45.0449C292.891 45.0449 292.891 45.0449 292.891 45.0449C293.518 44.7689 294.116 44.504 294.734 44.2256C297.528 42.9668 300.3 41.6533 303.058 40.2557C308.234 37.643 313.634 34.8297 317.985 30.5977C319.464 29.1691 320.657 27.4788 321.8 25.8036C322.555 24.6984 323.196 23.525 323.809 22.3428C324.129 21.7265 324.434 21.1189 324.753 20.5039Z" fill="#FFD291"/>
</svg>
