<svg xmlns="http://www.w3.org/2000/svg" fill="none" viewBox="16.75 14.49 67.95 70.36">
<path fill-rule="evenodd" clip-rule="evenodd" d="M17.2879 57.3371C16.6824 61.0237 16.0916 64.6199 18.5124 67.2334C20.8807 69.7901 24.2668 69.5973 27.7349 69.4001C30.6103 69.2367 33.5418 69.07 35.996 70.4641C38.1015 71.66 39.3209 74.1118 40.5222 76.5272C41.8735 79.2442 43.202 81.9153 45.7434 82.7023C48.3848 83.5202 50.5594 81.8734 52.7912 80.1834C54.472 78.9106 56.1852 77.6132 58.1543 77.3258C60.3892 76.9996 62.9122 77.769 65.3824 78.5224C68.8664 79.585 72.2457 80.6156 74.564 78.4952C77.1364 76.1424 75.9476 73.0783 74.644 69.7185C73.5419 66.8777 72.3575 63.8254 73.2953 60.8127C74.1019 58.2213 75.952 56.8817 77.9556 55.431C80.119 53.8646 82.461 52.1687 83.8613 48.6275C85.9338 43.3859 83.8951 36.3871 80.7242 31.1922C74.9312 21.7021 64.6058 17.6795 52.2753 15.2915C39.9448 12.9034 31.9354 15.9098 24.7808 23.2462C16.0013 32.2487 15.8943 37.0951 17.7413 50.757C18.0245 52.8522 17.6536 55.1112 17.2879 57.3371ZM30.2468 76.8619C32.6123 75.4915 35.4818 75.9954 36.6562 77.9876C37.8305 79.9797 36.8649 82.7055 34.4994 84.0759C32.1339 85.4463 29.2644 84.9423 28.09 82.9502C26.9157 80.9581 27.8813 78.2323 30.2468 76.8619Z" fill="#202226"/>
<path d="M52.7101 62.547L69.6191 45.8052C69.927 45.4867 70.1684 45.1112 70.3293 44.7002C70.6676 43.885 70.6676 42.9706 70.3293 42.1554C70.1684 41.7444 69.927 41.3689 69.6191 41.0505L52.7101 24.3086C52.3948 23.9964 52.0205 23.7488 51.6085 23.5798C51.1965 23.4109 50.755 23.3239 50.3091 23.3239C49.4085 23.3239 48.5448 23.6781 47.908 24.3086C47.2712 24.9391 46.9134 25.7943 46.9134 26.686C46.9134 27.5776 47.2712 28.4328 47.908 29.0633L59.0679 40.0794H33.4C32.5031 40.0794 31.643 40.4322 31.0088 41.0602C30.3745 41.6881 30.0182 42.5398 30.0182 43.4278C30.0182 44.3159 30.3745 45.1675 31.0088 45.7955C31.643 46.4234 32.5031 46.7762 33.4 46.7762H59.0679L47.908 57.7923C47.591 58.1036 47.3394 58.4739 47.1677 58.882C46.996 59.29 46.9076 59.7276 46.9076 60.1697C46.9076 60.6117 46.996 61.0493 47.1677 61.4574C47.3394 61.8654 47.591 62.2357 47.908 62.547C48.2224 62.8608 48.5964 63.1099 49.0085 63.2799C49.4206 63.4499 49.8626 63.5374 50.3091 63.5374C50.7555 63.5374 51.1975 63.4499 51.6096 63.2799C52.0217 63.1099 52.3958 62.8608 52.7101 62.547Z" fill="#FFBB58"/>
</svg>