<svg width="367" height="93" viewBox="0 0 367 93" fill="none" xmlns="http://www.w3.org/2000/svg">
<path d="M44.2707 31.906V1.806H57.2997C59.9943 1.806 62.3163 2.25034 64.2657 3.139C66.215 3.999 67.72 5.246 68.7807 6.88001C69.8413 8.514 70.3717 10.4633 70.3717 12.728C70.3717 14.964 69.8413 16.899 68.7807 18.533C67.72 20.167 66.215 21.4283 64.2657 22.317C62.3163 23.177 59.9943 23.607 57.2997 23.607H48.1407L51.2367 20.468V31.906H44.2707ZM51.2367 21.242L48.1407 17.931H56.9127C59.0627 17.931 60.668 17.4723 61.7287 16.555C62.7893 15.6377 63.3197 14.362 63.3197 12.728C63.3197 11.0653 62.7893 9.77534 61.7287 8.85801C60.668 7.94067 59.0627 7.48201 56.9127 7.48201H48.1407L51.2367 4.171V21.242ZM86.3109 32.25C83.6736 32.25 81.3516 31.734 79.3449 30.702C77.3669 29.67 75.8332 28.2653 74.7439 26.488C73.6546 24.682 73.1099 22.6323 73.1099 20.339C73.1099 18.017 73.6402 15.9673 74.7009 14.19C75.7902 12.384 77.2666 10.9793 79.1299 9.976C80.9932 8.94401 83.1002 8.42801 85.4509 8.42801C87.7156 8.42801 89.7509 8.91534 91.5569 9.89C93.3916 10.836 94.8392 12.212 95.8999 14.018C96.9606 15.7953 97.4909 17.931 97.4909 20.425C97.4909 20.683 97.4766 20.984 97.4479 21.328C97.4192 21.6433 97.3906 21.9443 97.3619 22.231H78.5709V18.318H93.8359L91.2559 19.479C91.2559 18.275 91.0122 17.2287 90.5249 16.34C90.0376 15.4513 89.3639 14.7633 88.5039 14.276C87.6439 13.76 86.6406 13.502 85.4939 13.502C84.3472 13.502 83.3296 13.76 82.4409 14.276C81.5809 14.7633 80.9072 15.4657 80.4199 16.383C79.9326 17.2717 79.6889 18.3323 79.6889 19.565V20.597C79.6889 21.8583 79.9612 22.9763 80.5059 23.951C81.0792 24.897 81.8676 25.628 82.8709 26.144C83.9029 26.6313 85.1069 26.875 86.4829 26.875C87.7156 26.875 88.7906 26.6887 89.7079 26.316C90.6539 25.9433 91.5139 25.3843 92.2879 24.639L95.8569 28.509C94.7962 29.713 93.4632 30.6447 91.8579 31.304C90.2526 31.9347 88.4036 32.25 86.3109 32.25ZM116.018 8.42801C117.853 8.42801 119.487 8.80067 120.92 9.546C122.382 10.2627 123.529 11.3807 124.36 12.9C125.191 14.3907 125.607 16.3113 125.607 18.662V31.906H118.899V19.694C118.899 17.8307 118.483 16.4547 117.652 15.566C116.849 14.6773 115.703 14.233 114.212 14.233C113.151 14.233 112.191 14.4623 111.331 14.921C110.5 15.351 109.84 16.0247 109.353 16.942C108.894 17.8593 108.665 19.0347 108.665 20.468V31.906H101.957V8.772H108.364V15.179L107.16 13.244C107.991 11.696 109.181 10.5063 110.729 9.67501C112.277 8.84367 114.04 8.42801 116.018 8.42801ZM142.734 40.592C140.556 40.592 138.449 40.3197 136.413 39.775C134.407 39.259 132.73 38.4707 131.382 37.41L134.048 32.594C135.023 33.3967 136.256 34.0273 137.746 34.486C139.266 34.9733 140.756 35.217 142.218 35.217C144.598 35.217 146.318 34.6867 147.378 33.626C148.468 32.5653 149.012 30.9887 149.012 28.896V25.413L149.442 19.608L149.356 13.76V8.772H155.72V28.036C155.72 32.336 154.602 35.5037 152.366 37.539C150.13 39.5743 146.92 40.592 142.734 40.592ZM141.702 30.788C139.552 30.788 137.603 30.3293 135.854 29.412C134.134 28.466 132.744 27.1617 131.683 25.499C130.651 23.8077 130.135 21.844 130.135 19.608C130.135 17.3433 130.651 15.3797 131.683 13.717C132.744 12.0257 134.134 10.7213 135.854 9.80401C137.603 8.88667 139.552 8.42801 141.702 8.42801C143.652 8.42801 145.372 8.82934 146.862 9.63201C148.353 10.406 149.514 11.6243 150.345 13.287C151.177 14.921 151.592 17.028 151.592 19.608C151.592 22.1593 151.177 24.2663 150.345 25.929C149.514 27.563 148.353 28.7813 146.862 29.584C145.372 30.3867 143.652 30.788 141.702 30.788ZM143.035 25.284C144.211 25.284 145.257 25.0547 146.174 24.596C147.092 24.1087 147.808 23.435 148.324 22.575C148.84 21.715 149.098 20.726 149.098 19.608C149.098 18.4613 148.84 17.4723 148.324 16.641C147.808 15.781 147.092 15.1217 146.174 14.663C145.257 14.1757 144.211 13.932 143.035 13.932C141.86 13.932 140.814 14.1757 139.896 14.663C138.979 15.1217 138.248 15.781 137.703 16.641C137.187 17.4723 136.929 18.4613 136.929 19.608C136.929 20.726 137.187 21.715 137.703 22.575C138.248 23.435 138.979 24.1087 139.896 24.596C140.814 25.0547 141.86 25.284 143.035 25.284ZM176.154 31.906V27.391L175.724 26.402V18.318C175.724 16.8847 175.279 15.7667 174.391 14.964C173.531 14.1613 172.198 13.76 170.392 13.76C169.159 13.76 167.941 13.9607 166.737 14.362C165.561 14.7347 164.558 15.2507 163.727 15.91L161.319 11.223C162.58 10.3343 164.099 9.64634 165.877 9.159C167.654 8.67167 169.46 8.42801 171.295 8.42801C174.821 8.42801 177.558 9.25934 179.508 10.922C181.457 12.5847 182.432 15.179 182.432 18.705V31.906H176.154ZM169.102 32.25C167.296 32.25 165.748 31.949 164.458 31.347C163.168 30.7163 162.179 29.8707 161.491 28.81C160.803 27.7493 160.459 26.5597 160.459 25.241C160.459 23.865 160.788 22.661 161.448 21.629C162.136 20.597 163.211 19.7943 164.673 19.221C166.135 18.619 168.041 18.318 170.392 18.318H176.541V22.231H171.123C169.546 22.231 168.457 22.489 167.855 23.005C167.281 23.521 166.995 24.166 166.995 24.94C166.995 25.8 167.324 26.488 167.984 27.004C168.672 27.4913 169.603 27.735 170.779 27.735C171.897 27.735 172.9 27.477 173.789 26.961C174.677 26.4163 175.322 25.628 175.724 24.596L176.756 27.692C176.268 29.1827 175.38 30.315 174.09 31.089C172.8 31.863 171.137 32.25 169.102 32.25ZM188.503 31.906V3.99351e-06H195.211V31.906H188.503ZM215.626 31.906V27.391L215.196 26.402V18.318C215.196 16.8847 214.752 15.7667 213.863 14.964C213.003 14.1613 211.67 13.76 209.864 13.76C208.632 13.76 207.413 13.9607 206.209 14.362C205.034 14.7347 204.031 15.2507 203.199 15.91L200.791 11.223C202.053 10.3343 203.572 9.64634 205.349 9.159C207.127 8.67167 208.933 8.42801 210.767 8.42801C214.293 8.42801 217.031 9.25934 218.98 10.922C220.93 12.5847 221.904 15.179 221.904 18.705V31.906H215.626ZM208.574 32.25C206.768 32.25 205.22 31.949 203.93 31.347C202.64 30.7163 201.651 29.8707 200.963 28.81C200.275 27.7493 199.931 26.5597 199.931 25.241C199.931 23.865 200.261 22.661 200.92 21.629C201.608 20.597 202.683 19.7943 204.145 19.221C205.607 18.619 207.514 18.318 209.864 18.318H216.013V22.231H210.595C209.019 22.231 207.929 22.489 207.327 23.005C206.754 23.521 206.467 24.166 206.467 24.94C206.467 25.8 206.797 26.488 207.456 27.004C208.144 27.4913 209.076 27.735 210.251 27.735C211.369 27.735 212.373 27.477 213.261 26.961C214.15 26.4163 214.795 25.628 215.196 24.596L216.228 27.692C215.741 29.1827 214.852 30.315 213.562 31.089C212.272 31.863 210.61 32.25 208.574 32.25ZM257.602 8.42801C259.437 8.42801 261.057 8.80067 262.461 9.546C263.895 10.2627 265.013 11.3807 265.815 12.9C266.647 14.3907 267.062 16.3113 267.062 18.662V31.906H260.354V19.694C260.354 17.8307 259.967 16.4547 259.193 15.566C258.419 14.6773 257.33 14.233 255.925 14.233C254.951 14.233 254.076 14.4623 253.302 14.921C252.528 15.351 251.926 16.0103 251.496 16.899C251.066 17.7877 250.851 18.92 250.851 20.296V31.906H244.143V19.694C244.143 17.8307 243.756 16.4547 242.982 15.566C242.237 14.6773 241.162 14.233 239.757 14.233C238.783 14.233 237.908 14.4623 237.134 14.921C236.36 15.351 235.758 16.0103 235.328 16.899C234.898 17.7877 234.683 18.92 234.683 20.296V31.906H227.975V8.772H234.382V15.093L233.178 13.244C233.981 11.6673 235.113 10.4777 236.575 9.67501C238.066 8.84367 239.757 8.42801 241.649 8.42801C243.771 8.42801 245.62 8.97267 247.196 10.062C248.802 11.1227 249.862 12.7567 250.378 14.964L248.013 14.319C248.787 12.513 250.02 11.0797 251.711 10.019C253.431 8.95834 255.395 8.42801 257.602 8.42801ZM287.265 31.906V27.391L286.835 26.402V18.318C286.835 16.8847 286.391 15.7667 285.502 14.964C284.642 14.1613 283.309 13.76 281.503 13.76C280.27 13.76 279.052 13.9607 277.848 14.362C276.673 14.7347 275.669 15.2507 274.838 15.91L272.43 11.223C273.691 10.3343 275.211 9.64634 276.988 9.159C278.765 8.67167 280.571 8.42801 282.406 8.42801C285.932 8.42801 288.67 9.25934 290.619 10.922C292.568 12.5847 293.543 15.179 293.543 18.705V31.906H287.265ZM280.213 32.25C278.407 32.25 276.859 31.949 275.569 31.347C274.279 30.7163 273.29 29.8707 272.602 28.81C271.914 27.7493 271.57 26.5597 271.57 25.241C271.57 23.865 271.9 22.661 272.559 21.629C273.247 20.597 274.322 19.7943 275.784 19.221C277.246 18.619 279.152 18.318 281.503 18.318H287.652V22.231H282.234C280.657 22.231 279.568 22.489 278.966 23.005C278.393 23.521 278.106 24.166 278.106 24.94C278.106 25.8 278.436 26.488 279.095 27.004C279.783 27.4913 280.715 27.735 281.89 27.735C283.008 27.735 284.011 27.477 284.9 26.961C285.789 26.4163 286.434 25.628 286.835 24.596L287.867 27.692C287.38 29.1827 286.491 30.315 285.201 31.089C283.911 31.863 282.248 32.25 280.213 32.25ZM313.675 8.42801C315.51 8.42801 317.144 8.80067 318.577 9.546C320.039 10.2627 321.186 11.3807 322.017 12.9C322.848 14.3907 323.264 16.3113 323.264 18.662V31.906H316.556V19.694C316.556 17.8307 316.14 16.4547 315.309 15.566C314.506 14.6773 313.36 14.233 311.869 14.233C310.808 14.233 309.848 14.4623 308.988 14.921C308.157 15.351 307.497 16.0247 307.01 16.942C306.551 17.8593 306.322 19.0347 306.322 20.468V31.906H299.614V8.772H306.021V15.179L304.817 13.244C305.648 11.696 306.838 10.5063 308.386 9.67501C309.934 8.84367 311.697 8.42801 313.675 8.42801ZM14.0608 60.428C15.8955 60.428 17.5295 60.8007 18.9628 61.546C20.4248 62.2627 21.5715 63.3807 22.4028 64.9C23.2341 66.3907 23.6498 68.3113 23.6498 70.662V83.906H16.9418V71.694C16.9418 69.8307 16.5261 68.4547 15.6948 67.566C14.8921 66.6773 13.7455 66.233 12.2548 66.233C11.1941 66.233 10.2338 66.4623 9.37381 66.921C8.54248 67.351 7.88314 68.0247 7.39581 68.942C6.93714 69.8593 6.70781 71.0347 6.70781 72.468V83.906H-0.000191219V60.772H6.40681V67.179L5.20281 65.244C6.03414 63.696 7.22381 62.5063 8.77181 61.675C10.3198 60.8437 12.0828 60.428 14.0608 60.428ZM43.9203 83.906V79.391L43.4903 78.402V70.318C43.4903 68.8847 43.0459 67.7667 42.1573 66.964C41.2973 66.1613 39.9643 65.76 38.1583 65.76C36.9256 65.76 35.7073 65.9607 34.5033 66.362C33.3279 66.7347 32.3246 67.2507 31.4933 67.91L29.0853 63.223C30.3466 62.3343 31.8659 61.6463 33.6433 61.159C35.4206 60.6717 37.2266 60.428 39.0613 60.428C42.5873 60.428 45.3249 61.2593 47.2743 62.922C49.2236 64.5847 50.1983 67.179 50.1983 70.705V83.906H43.9203ZM36.8683 84.25C35.0623 84.25 33.5143 83.949 32.2243 83.347C30.9343 82.7163 29.9453 81.8707 29.2573 80.81C28.5693 79.7493 28.2253 78.5597 28.2253 77.241C28.2253 75.865 28.5549 74.661 29.2143 73.629C29.9023 72.597 30.9773 71.7943 32.4393 71.221C33.9013 70.619 35.8076 70.318 38.1583 70.318H44.3073V74.231H38.8893C37.3126 74.231 36.2233 74.489 35.6213 75.005C35.0479 75.521 34.7613 76.166 34.7613 76.94C34.7613 77.8 35.0909 78.488 35.7503 79.004C36.4383 79.4913 37.3699 79.735 38.5453 79.735C39.6633 79.735 40.6666 79.477 41.5553 78.961C42.4439 78.4163 43.0889 77.628 43.4903 76.596L44.5223 79.692C44.0349 81.1827 43.1463 82.315 41.8563 83.089C40.5663 83.863 38.9036 84.25 36.8683 84.25ZM62.1274 83.906L52.4094 60.772H59.3324L67.4164 80.681H63.9764L72.3614 60.772H78.8114L69.0504 83.906H62.1274ZM81.5486 83.906V60.772H88.2566V83.906H81.5486ZM84.9026 57.547C83.67 57.547 82.6666 57.1887 81.8926 56.472C81.1186 55.7553 80.7316 54.8667 80.7316 53.806C80.7316 52.7453 81.1186 51.8567 81.8926 51.14C82.6666 50.4233 83.67 50.065 84.9026 50.065C86.1353 50.065 87.1386 50.409 87.9126 51.097C88.6866 51.7563 89.0736 52.6163 89.0736 53.677C89.0736 54.795 88.6866 55.7267 87.9126 56.472C87.1673 57.1887 86.164 57.547 84.9026 57.547ZM105.361 92.592C103.183 92.592 101.076 92.3197 99.0402 91.775C97.0336 91.259 95.3566 90.4707 94.0092 89.41L96.6752 84.594C97.6499 85.3967 98.8826 86.0273 100.373 86.486C101.893 86.9733 103.383 87.217 104.845 87.217C107.225 87.217 108.945 86.6867 110.005 85.626C111.095 84.5653 111.639 82.9887 111.639 80.896V77.413L112.069 71.608L111.983 65.76V60.772H118.347V80.036C118.347 84.336 117.229 87.5037 114.993 89.539C112.757 91.5743 109.547 92.592 105.361 92.592ZM104.329 82.788C102.179 82.788 100.23 82.3293 98.4812 81.412C96.7612 80.466 95.3709 79.1617 94.3102 77.499C93.2782 75.8077 92.7622 73.844 92.7622 71.608C92.7622 69.3433 93.2782 67.3797 94.3102 65.717C95.3709 64.0257 96.7612 62.7213 98.4812 61.804C100.23 60.8867 102.179 60.428 104.329 60.428C106.279 60.428 107.999 60.8293 109.489 61.632C110.98 62.406 112.141 63.6243 112.972 65.287C113.804 66.921 114.219 69.028 114.219 71.608C114.219 74.1593 113.804 76.2663 112.972 77.929C112.141 79.563 110.98 80.7813 109.489 81.584C107.999 82.3867 106.279 82.788 104.329 82.788ZM105.662 77.284C106.838 77.284 107.884 77.0547 108.801 76.596C109.719 76.1087 110.435 75.435 110.951 74.575C111.467 73.715 111.725 72.726 111.725 71.608C111.725 70.4613 111.467 69.4723 110.951 68.641C110.435 67.781 109.719 67.1217 108.801 66.663C107.884 66.1757 106.838 65.932 105.662 65.932C104.487 65.932 103.441 66.1757 102.523 66.663C101.606 67.1217 100.875 67.781 100.33 68.641C99.8142 69.4723 99.5562 70.4613 99.5562 71.608C99.5562 72.726 99.8142 73.715 100.33 74.575C100.875 75.435 101.606 76.1087 102.523 76.596C103.441 77.0547 104.487 77.284 105.662 77.284ZM138.781 83.906V79.391L138.351 78.402V70.318C138.351 68.8847 137.906 67.7667 137.018 66.964C136.158 66.1613 134.825 65.76 133.019 65.76C131.786 65.76 130.568 65.9607 129.364 66.362C128.188 66.7347 127.185 67.2507 126.354 67.91L123.946 63.223C125.207 62.3343 126.726 61.6463 128.504 61.159C130.281 60.6717 132.087 60.428 133.922 60.428C137.448 60.428 140.185 61.2593 142.135 62.922C144.084 64.5847 145.059 67.179 145.059 70.705V83.906H138.781ZM131.729 84.25C129.923 84.25 128.375 83.949 127.085 83.347C125.795 82.7163 124.806 81.8707 124.118 80.81C123.43 79.7493 123.086 78.5597 123.086 77.241C123.086 75.865 123.415 74.661 124.075 73.629C124.763 72.597 125.838 71.7943 127.3 71.221C128.762 70.619 130.668 70.318 133.019 70.318H139.168V74.231H133.75C132.173 74.231 131.084 74.489 130.482 75.005C129.908 75.521 129.622 76.166 129.622 76.94C129.622 77.8 129.951 78.488 130.611 79.004C131.299 79.4913 132.23 79.735 133.406 79.735C134.524 79.735 135.527 79.477 136.416 78.961C137.304 78.4163 137.949 77.628 138.351 76.596L139.383 79.692C138.895 81.1827 138.007 82.315 136.717 83.089C135.427 83.863 133.764 84.25 131.729 84.25ZM158.913 84.25C156.935 84.25 155.028 84.0207 153.194 83.562C151.388 83.0747 149.954 82.4727 148.894 81.756L151.13 76.94C152.19 77.5993 153.437 78.144 154.871 78.574C156.333 78.9753 157.766 79.176 159.171 79.176C160.719 79.176 161.808 78.9897 162.439 78.617C163.098 78.2443 163.428 77.7283 163.428 77.069C163.428 76.5243 163.17 76.123 162.654 75.865C162.166 75.5783 161.507 75.3633 160.676 75.22C159.844 75.0767 158.927 74.9333 157.924 74.79C156.949 74.6467 155.96 74.4603 154.957 74.231C153.953 73.973 153.036 73.6003 152.205 73.113C151.373 72.6257 150.7 71.9663 150.184 71.135C149.696 70.3037 149.453 69.2287 149.453 67.91C149.453 66.448 149.868 65.158 150.7 64.04C151.56 62.922 152.792 62.0477 154.398 61.417C156.003 60.7577 157.924 60.428 160.16 60.428C161.736 60.428 163.342 60.6 164.976 60.944C166.61 61.288 167.971 61.7897 169.061 62.449L166.825 67.222C165.707 66.5627 164.574 66.1183 163.428 65.889C162.31 65.631 161.22 65.502 160.16 65.502C158.669 65.502 157.58 65.7027 156.892 66.104C156.204 66.5053 155.86 67.0213 155.86 67.652C155.86 68.2253 156.103 68.6553 156.591 68.942C157.107 69.2287 157.78 69.458 158.612 69.63C159.443 69.802 160.346 69.9597 161.321 70.103C162.324 70.2177 163.327 70.404 164.331 70.662C165.334 70.92 166.237 71.2927 167.04 71.78C167.871 72.2387 168.545 72.8837 169.061 73.715C169.577 74.5177 169.835 75.5783 169.835 76.897C169.835 78.3303 169.405 79.606 168.545 80.724C167.685 81.8133 166.438 82.6733 164.804 83.304C163.198 83.9347 161.235 84.25 158.913 84.25ZM173.973 83.906V60.772H180.681V83.906H173.973ZM177.327 57.547C176.095 57.547 175.091 57.1887 174.317 56.472C173.543 55.7553 173.156 54.8667 173.156 53.806C173.156 52.7453 173.543 51.8567 174.317 51.14C175.091 50.4233 176.095 50.065 177.327 50.065C178.56 50.065 179.563 50.409 180.337 51.097C181.111 51.7563 181.498 52.6163 181.498 53.677C181.498 54.795 181.111 55.7267 180.337 56.472C179.592 57.1887 178.589 57.547 177.327 57.547ZM210.093 84.25C207.627 84.25 205.434 83.734 203.514 82.702C201.622 81.67 200.117 80.2653 198.999 78.488C197.909 76.682 197.365 74.6323 197.365 72.339C197.365 70.017 197.909 67.9673 198.999 66.19C200.117 64.384 201.622 62.9793 203.514 61.976C205.434 60.944 207.627 60.428 210.093 60.428C212.529 60.428 214.708 60.944 216.629 61.976C218.549 62.9793 220.054 64.3697 221.144 66.147C222.233 67.9243 222.778 69.9883 222.778 72.339C222.778 74.6323 222.233 76.682 221.144 78.488C220.054 80.2653 218.549 81.67 216.629 82.702C214.708 83.734 212.529 84.25 210.093 84.25ZM210.093 78.746C211.211 78.746 212.214 78.488 213.103 77.972C213.991 77.456 214.694 76.725 215.21 75.779C215.726 74.8043 215.984 73.6577 215.984 72.339C215.984 70.9917 215.726 69.845 215.21 68.899C214.694 67.953 213.991 67.222 213.103 66.706C212.214 66.19 211.211 65.932 210.093 65.932C208.975 65.932 207.971 66.19 207.083 66.706C206.194 67.222 205.477 67.953 204.933 68.899C204.417 69.845 204.159 70.9917 204.159 72.339C204.159 73.6577 204.417 74.8043 204.933 75.779C205.477 76.725 206.194 77.456 207.083 77.972C207.971 78.488 208.975 78.746 210.093 78.746ZM240.936 84.25C238.986 84.25 237.281 83.82 235.819 82.96C234.357 82.1 233.21 80.7957 232.379 79.047C231.576 77.2697 231.175 75.0337 231.175 72.339C231.175 69.6157 231.562 67.3797 232.336 65.631C233.11 63.8823 234.228 62.578 235.69 61.718C237.152 60.858 238.9 60.428 240.936 60.428C243.114 60.428 245.064 60.9297 246.784 61.933C248.532 62.9077 249.908 64.2837 250.912 66.061C251.944 67.8383 252.46 69.931 252.46 72.339C252.46 74.7757 251.944 76.8827 250.912 78.66C249.908 80.4373 248.532 81.8133 246.784 82.788C245.064 83.7627 243.114 84.25 240.936 84.25ZM227.262 92.248V60.772H233.669V65.502L233.54 72.382L233.97 79.219V92.248H227.262ZM239.775 78.746C240.893 78.746 241.882 78.488 242.742 77.972C243.63 77.456 244.333 76.725 244.849 75.779C245.393 74.8043 245.666 73.6577 245.666 72.339C245.666 70.9917 245.393 69.845 244.849 68.899C244.333 67.953 243.63 67.222 242.742 66.706C241.882 66.19 240.893 65.932 239.775 65.932C238.657 65.932 237.653 66.19 236.765 66.706C235.876 67.222 235.174 67.953 234.658 68.899C234.142 69.845 233.884 70.9917 233.884 72.339C233.884 73.6577 234.142 74.8043 234.658 75.779C235.174 76.725 235.876 77.456 236.765 77.972C237.653 78.488 238.657 78.746 239.775 78.746ZM266.41 84.25C263.687 84.25 261.565 83.562 260.046 82.186C258.527 80.7813 257.767 78.703 257.767 75.951V55.655H264.475V75.865C264.475 76.8397 264.733 77.5993 265.249 78.144C265.765 78.66 266.467 78.918 267.356 78.918C268.417 78.918 269.32 78.6313 270.065 78.058L271.871 82.788C271.183 83.2753 270.352 83.648 269.377 83.906C268.431 84.1353 267.442 84.25 266.41 84.25ZM254.198 66.448V61.288H270.237V66.448H254.198ZM275.637 83.906V60.772H282.345V83.906H275.637ZM278.991 57.547C277.758 57.547 276.755 57.1887 275.981 56.472C275.207 55.7553 274.82 54.8667 274.82 53.806C274.82 52.7453 275.207 51.8567 275.981 51.14C276.755 50.4233 277.758 50.065 278.991 50.065C280.223 50.065 281.227 50.409 282.001 51.097C282.775 51.7563 283.162 52.6163 283.162 53.677C283.162 54.795 282.775 55.7267 282.001 56.472C281.255 57.1887 280.252 57.547 278.991 57.547ZM318.197 60.428C320.032 60.428 321.651 60.8007 323.056 61.546C324.489 62.2627 325.607 63.3807 326.41 64.9C327.241 66.3907 327.657 68.3113 327.657 70.662V83.906H320.949V71.694C320.949 69.8307 320.562 68.4547 319.788 67.566C319.014 66.6773 317.925 66.233 316.52 66.233C315.545 66.233 314.671 66.4623 313.897 66.921C313.123 67.351 312.521 68.0103 312.091 68.899C311.661 69.7877 311.446 70.92 311.446 72.296V83.906H304.738V71.694C304.738 69.8307 304.351 68.4547 303.577 67.566C302.832 66.6773 301.757 66.233 300.352 66.233C299.377 66.233 298.503 66.4623 297.729 66.921C296.955 67.351 296.353 68.0103 295.923 68.899C295.493 69.7877 295.278 70.92 295.278 72.296V83.906H288.57V60.772H294.977V67.093L293.773 65.244C294.576 63.6673 295.708 62.4777 297.17 61.675C298.661 60.8437 300.352 60.428 302.244 60.428C304.365 60.428 306.214 60.9727 307.791 62.062C309.396 63.1227 310.457 64.7567 310.973 66.964L308.608 66.319C309.382 64.513 310.615 63.0797 312.306 62.019C314.026 60.9583 315.99 60.428 318.197 60.428ZM347.86 83.906V79.391L347.43 78.402V70.318C347.43 68.8847 346.985 67.7667 346.097 66.964C345.237 66.1613 343.904 65.76 342.098 65.76C340.865 65.76 339.647 65.9607 338.443 66.362C337.267 66.7347 336.264 67.2507 335.433 67.91L333.025 63.223C334.286 62.3343 335.805 61.6463 337.583 61.159C339.36 60.6717 341.166 60.428 343.001 60.428C346.527 60.428 349.264 61.2593 351.214 62.922C353.163 64.5847 354.138 67.179 354.138 70.705V83.906H347.86ZM340.808 84.25C339.002 84.25 337.454 83.949 336.164 83.347C334.874 82.7163 333.885 81.8707 333.197 80.81C332.509 79.7493 332.165 78.5597 332.165 77.241C332.165 75.865 332.494 74.661 333.154 73.629C333.842 72.597 334.917 71.7943 336.379 71.221C337.841 70.619 339.747 70.318 342.098 70.318H348.247V74.231H342.829C341.252 74.231 340.163 74.489 339.561 75.005C338.987 75.521 338.701 76.166 338.701 76.94C338.701 77.8 339.03 78.488 339.69 79.004C340.378 79.4913 341.309 79.735 342.485 79.735C343.603 79.735 344.606 79.477 345.495 78.961C346.383 78.4163 347.028 77.628 347.43 76.596L348.462 79.692C347.974 81.1827 347.086 82.315 345.796 83.089C344.506 83.863 342.843 84.25 340.808 84.25ZM360.209 83.906V52H366.917V83.906H360.209Z" fill="#202226"/>
</svg>
