<svg width="138" height="206" viewBox="0 0 138 206" fill="none" xmlns="http://www.w3.org/2000/svg">
<path d="M108.186 15.5876C114.683 17.0073 119.937 18.1554 122.58 18.733C132.394 20.8776 135.876 23.7643 133.66 33.9087C131.443 44.053 100.113 187.426 98.487 194.866C96.8613 202.305 95.2572 203.371 88.0603 201.799C80.8634 200.226 27.2133 188.502 15.4363 185.929C3.65942 183.355 1.4854 180.754 3.8503 169.934C6.21519 159.113 36.0672 22.5026 38.1363 13.0346C40.2054 3.56665 43.4134 1.43331 55.1904 4.00683C58.5886 4.74942 57.3951 4.48863 64.7769 6.10171M108.186 15.5876C97.5227 13.2574 76.0868 8.5732 64.7769 6.10171M108.186 15.5876L64.7769 6.10171M108.186 15.5876C107.595 18.2928 106.645 19.5024 103.374 18.7875C100.103 18.0727 69.9778 11.2441 67.3607 10.6722C64.7436 10.1003 64.1858 8.80686 64.7769 6.10171" stroke="black" stroke-width="6"/>
<path d="M89.8694 195.744L12.2021 178.772" stroke="black" stroke-width="4" stroke-linecap="round"/>
<rect x="43.3994" y="167.165" width="20" height="20" rx="10" transform="rotate(12.3267 43.3994 167.165)" fill="black"/>
<rect x="51.4258" y="13.3316" width="70" height="10" rx="3" transform="rotate(12.3267 51.4258 13.3316)" fill="black"/>
<rect x="50.8179" y="25.4819" width="28" height="7" rx="2" transform="rotate(12.3267 50.8179 25.4819)" fill="black"/>
<rect x="25.9883" y="120.369" width="75" height="15" rx="3" transform="rotate(12.3267 25.9883 120.369)" fill="black"/>
<rect x="21.0781" y="142.839" width="75" height="15" rx="3" transform="rotate(12.3267 21.0781 142.839)" fill="black"/>
<rect x="56.3174" y="47.1557" width="60" height="4" rx="2" transform="rotate(12.3267 56.3174 47.1557)" fill="black"/>
<rect x="50.9805" y="71.5793" width="60" height="4" rx="2" transform="rotate(12.3267 50.9805 71.5793)" fill="black"/>
<rect x="45.6431" y="96.003" width="60" height="4" rx="2" transform="rotate(12.3267 45.6431 96.003)" fill="black"/>
<rect x="30.1025" y="87.489" width="15" height="15" rx="7.5" transform="rotate(12.3267 30.1025 87.489)" fill="black"/>
<rect x="35.4395" y="63.0654" width="15" height="15" rx="7.5" transform="rotate(12.3267 35.4395 63.0654)" fill="black"/>
<rect x="40.7769" y="38.6417" width="15" height="15" rx="7.5" transform="rotate(12.3267 40.7769 38.6417)" fill="black"/>
<rect x="19.8809" y="110.845" width="92" height="4" transform="rotate(12.3267 19.8809 110.845)" fill="black"/>
<rect x="87.9419" y="33.5944" width="28" height="7" rx="2" transform="rotate(12.3267 87.9419 33.5944)" fill="black"/>
</svg>
