<svg width="316" height="78" viewBox="0 0 316 78" fill="none" xmlns="http://www.w3.org/2000/svg">
<rect width="316" height="78" rx="25" fill="#FFBB58"/>
<path d="M34.568 62.768C31.5387 62.768 28.744 62.2133 26.184 61.104C23.6667 59.952 21.5973 58.3307 19.976 56.24L25.736 49.328C26.9733 50.9493 28.2747 52.1867 29.64 53.04C31.0053 53.8507 32.4773 54.256 34.056 54.256C38.28 54.256 40.392 51.7813 40.392 46.832V25.52H24.648V17.2H50.696V46.256C50.696 51.8027 49.3307 55.9413 46.6 58.672C43.8693 61.4027 39.8587 62.768 34.568 62.768ZM77.321 62.512C73.3957 62.512 69.9397 61.744 66.953 60.208C64.009 58.672 61.7263 56.5813 60.105 53.936C58.4837 51.248 57.673 48.1973 57.673 44.784C57.673 41.328 58.4623 38.2773 60.041 35.632C61.6623 32.944 63.8597 30.8533 66.633 29.36C69.4063 27.824 72.5423 27.056 76.041 27.056C79.4117 27.056 82.441 27.7813 85.129 29.232C87.8597 30.64 90.0143 32.688 91.593 35.376C93.1717 38.0213 93.961 41.2 93.961 44.912C93.961 45.296 93.9397 45.744 93.897 46.256C93.8543 46.7253 93.8117 47.1733 93.769 47.6H65.801V41.776H88.521L84.681 43.504C84.681 41.712 84.3183 40.1547 83.593 38.832C82.8677 37.5093 81.865 36.4853 80.585 35.76C79.305 34.992 77.8117 34.608 76.105 34.608C74.3983 34.608 72.8837 34.992 71.561 35.76C70.281 36.4853 69.2783 37.5307 68.553 38.896C67.8277 40.2187 67.465 41.7973 67.465 43.632V45.168C67.465 47.0453 67.8703 48.7093 68.681 50.16C69.5343 51.568 70.7077 52.656 72.201 53.424C73.737 54.1493 75.529 54.512 77.577 54.512C79.4117 54.512 81.0117 54.2347 82.377 53.68C83.785 53.1253 85.065 52.2933 86.217 51.184L91.529 56.944C89.9503 58.736 87.9663 60.1227 85.577 61.104C83.1877 62.0427 80.4357 62.512 77.321 62.512ZM100.608 62V14.512H110.592V62H100.608ZM140.978 62V55.28L140.338 53.808V41.776C140.338 39.6427 139.677 37.9787 138.354 36.784C137.074 35.5893 135.09 34.992 132.402 34.992C130.567 34.992 128.754 35.2907 126.962 35.888C125.213 36.4427 123.719 37.2107 122.482 38.192L118.898 31.216C120.775 29.8933 123.037 28.8693 125.682 28.144C128.327 27.4187 131.015 27.056 133.746 27.056C138.994 27.056 143.069 28.2933 145.97 30.768C148.871 33.2427 150.322 37.104 150.322 42.352V62H140.978ZM130.482 62.512C127.794 62.512 125.49 62.064 123.57 61.168C121.65 60.2293 120.178 58.9707 119.154 57.392C118.13 55.8133 117.618 54.0427 117.618 52.08C117.618 50.032 118.109 48.24 119.09 46.704C120.114 45.168 121.714 43.9733 123.89 43.12C126.066 42.224 128.903 41.776 132.402 41.776H141.554V47.6H133.49C131.143 47.6 129.522 47.984 128.626 48.752C127.773 49.52 127.346 50.48 127.346 51.632C127.346 52.912 127.837 53.936 128.818 54.704C129.842 55.4293 131.229 55.792 132.978 55.792C134.642 55.792 136.135 55.408 137.458 54.64C138.781 53.8293 139.741 52.656 140.338 51.12L141.874 55.728C141.149 57.9467 139.826 59.632 137.906 60.784C135.986 61.936 133.511 62.512 130.482 62.512ZM156.798 74.928C155.262 74.928 153.79 74.7573 152.382 74.416C150.974 74.1173 149.779 73.648 148.798 73.008L151.486 65.776C152.638 66.5867 154.046 66.992 155.71 66.992C156.947 66.992 157.929 66.5653 158.654 65.712C159.422 64.9013 159.806 63.664 159.806 62V27.568H169.79V61.936C169.79 65.904 168.659 69.0613 166.398 71.408C164.137 73.7547 160.937 74.928 156.798 74.928ZM164.798 22.768C162.963 22.768 161.47 22.2347 160.318 21.168C159.166 20.1013 158.59 18.7787 158.59 17.2C158.59 15.6213 159.166 14.2987 160.318 13.232C161.47 12.1653 162.963 11.632 164.798 11.632C166.633 11.632 168.126 12.144 169.278 13.168C170.43 14.1493 171.006 15.4293 171.006 17.008C171.006 18.672 170.43 20.0587 169.278 21.168C168.169 22.2347 166.675 22.768 164.798 22.768ZM200.103 62V55.28L199.463 53.808V41.776C199.463 39.6427 198.802 37.9787 197.479 36.784C196.199 35.5893 194.215 34.992 191.527 34.992C189.692 34.992 187.879 35.2907 186.087 35.888C184.338 36.4427 182.844 37.2107 181.607 38.192L178.023 31.216C179.9 29.8933 182.162 28.8693 184.807 28.144C187.452 27.4187 190.14 27.056 192.871 27.056C198.119 27.056 202.194 28.2933 205.095 30.768C207.996 33.2427 209.447 37.104 209.447 42.352V62H200.103ZM189.607 62.512C186.919 62.512 184.615 62.064 182.695 61.168C180.775 60.2293 179.303 58.9707 178.279 57.392C177.255 55.8133 176.743 54.0427 176.743 52.08C176.743 50.032 177.234 48.24 178.215 46.704C179.239 45.168 180.839 43.9733 183.015 43.12C185.191 42.224 188.028 41.776 191.527 41.776H200.679V47.6H192.615C190.268 47.6 188.647 47.984 187.751 48.752C186.898 49.52 186.471 50.48 186.471 51.632C186.471 52.912 186.962 53.936 187.943 54.704C188.967 55.4293 190.354 55.792 192.103 55.792C193.767 55.792 195.26 55.408 196.583 54.64C197.906 53.8293 198.866 52.656 199.463 51.12L200.999 55.728C200.274 57.9467 198.951 59.632 197.031 60.784C195.111 61.936 192.636 62.512 189.607 62.512ZM239.411 27.056C242.142 27.056 244.574 27.6107 246.707 28.72C248.883 29.7867 250.59 31.4507 251.827 33.712C253.064 35.9307 253.683 38.7893 253.683 42.288V62H243.699V43.824C243.699 41.0507 243.08 39.0027 241.843 37.68C240.648 36.3573 238.942 35.696 236.723 35.696C235.144 35.696 233.715 36.0373 232.435 36.72C231.198 37.36 230.216 38.3627 229.491 39.728C228.808 41.0933 228.467 42.8427 228.467 44.976V62H218.483V14.512H228.467V37.104L226.227 34.224C227.464 31.92 229.235 30.1493 231.539 28.912C233.843 27.6747 236.467 27.056 239.411 27.056ZM262.733 62V27.568H272.717V62H262.733ZM267.725 22.768C265.89 22.768 264.397 22.2347 263.245 21.168C262.093 20.1013 261.517 18.7787 261.517 17.2C261.517 15.6213 262.093 14.2987 263.245 13.232C264.397 12.1653 265.89 11.632 267.725 11.632C269.56 11.632 271.053 12.144 272.205 13.168C273.357 14.1493 273.933 15.4293 273.933 17.008C273.933 18.672 273.357 20.0587 272.205 21.168C271.096 22.2347 269.602 22.768 267.725 22.768ZM282.687 46.448L280.703 17.2H292.607L290.623 46.448H282.687ZM286.655 62.512C284.863 62.512 283.391 61.936 282.239 60.784C281.087 59.632 280.511 58.2667 280.511 56.688C280.511 55.0667 281.087 53.7227 282.239 52.656C283.391 51.5467 284.863 50.992 286.655 50.992C288.49 50.992 289.962 51.5467 291.071 52.656C292.223 53.7227 292.799 55.0667 292.799 56.688C292.799 58.2667 292.223 59.632 291.071 60.784C289.962 61.936 288.49 62.512 286.655 62.512Z" fill="#5D3B1F"/>
</svg>
