<svg width="166" height="81" viewBox="0 0 166 81" fill="none" xmlns="http://www.w3.org/2000/svg">
<rect width="166" height="78" rx="25" fill="#202226"/>
<path d="M28.28 64L46.392 19.008H53.496L71.544 64H62.264L48.312 27.072H51.512L37.368 64H28.28ZM37.88 55.616V48.32H62.072V55.616H37.88ZM82.8775 64.256L69.9495 33.088H79.0375L87.6135 56.896H84.5415L93.4375 33.088H102.59L88.8295 64.256H82.8775ZM74.3015 76.928L83.7095 57.024L88.8295 64.256L83.1975 76.928H74.3015ZM119.99 64.64C116.875 64.64 114.059 63.936 111.542 62.528C109.067 61.0773 107.083 59.136 105.59 56.704C104.139 54.2293 103.414 51.4773 103.414 48.448C103.414 45.4187 104.139 42.7093 105.59 40.32C107.041 37.888 109.025 35.968 111.542 34.56C114.059 33.1093 116.854 32.384 119.926 32.384C123.083 32.384 125.899 33.1093 128.374 34.56C130.891 35.968 132.875 37.888 134.326 40.32C135.777 42.7093 136.502 45.4187 136.502 48.448C136.502 51.4773 135.777 54.2293 134.326 56.704C132.875 59.136 130.891 61.0773 128.374 62.528C125.899 63.936 123.105 64.64 119.99 64.64ZM119.926 56.832C121.505 56.832 122.891 56.4907 124.086 55.808C125.323 55.0827 126.262 54.1013 126.902 52.864C127.585 51.584 127.926 50.1333 127.926 48.512C127.926 46.8907 127.585 45.4613 126.902 44.224C126.219 42.9867 125.281 42.0267 124.086 41.344C122.891 40.6187 121.505 40.256 119.926 40.256C118.39 40.256 117.025 40.6187 115.83 41.344C114.635 42.0267 113.697 42.9867 113.014 44.224C112.331 45.4613 111.99 46.8907 111.99 48.512C111.99 50.1333 112.331 51.584 113.014 52.864C113.697 54.1013 114.635 55.0827 115.83 55.808C117.025 56.4907 118.39 56.832 119.926 56.832Z" fill="#FFBB58"/>
</svg>
