<svg width="103" height="96" viewBox="0 0 103 96" fill="none" xmlns="http://www.w3.org/2000/svg">
<path d="M80.7344 0.5C78.7664 0.500089 76.9941 1.58909 76.0791 3.34375H76.0781L64.6846 23.4824L64.6777 23.4961L64.6709 23.5088C63.5298 25.8348 64.0544 28.7908 65.8809 30.6611L66.0615 30.8389L71.2139 35.6777L71.2646 35.7402C71.326 35.8259 71.4149 35.9781 71.502 36.1738C71.6081 36.4125 71.6599 36.6012 71.6699 36.6797C71.6693 36.6845 71.6688 36.6897 71.668 36.6953C71.6618 36.7379 71.6502 36.8058 71.6318 36.8984C71.5951 37.0837 71.5287 37.3701 71.4082 37.7549C71.1672 38.5245 70.7118 39.6902 69.8584 41.2354C68.1511 44.3263 64.8485 48.9355 58.4746 54.9219C52.0897 60.9205 47.1807 64.0205 43.8789 65.6201C42.2282 66.4198 40.9785 66.8446 40.1465 67.0693C39.7306 67.1817 39.4187 67.2441 39.2129 67.2783C39.11 67.2954 39.0332 67.3058 38.9834 67.3115C38.9741 67.3126 38.9655 67.3127 38.958 67.3135C38.9366 67.3093 38.8886 67.3004 38.8105 67.2764C38.709 67.2451 38.5866 67.2005 38.4609 67.1484C38.1859 67.0345 37.9818 66.9197 37.9219 66.8662L31.8818 61.1895L31.6426 60.9766C30.42 59.9429 28.7612 59.3709 27.0469 59.3701C26.1413 59.3639 25.2448 59.5344 24.4131 59.8691L24.0605 60.0225L24.041 60.0322L23.8721 60.1211L23.8623 60.126L3.38086 71.4629L3.10352 71.6133C1.83628 72.3421 0.942455 73.4718 0.624023 74.8086L0.56543 75.0986L0.564453 75.1006C0.311793 76.6057 0.821267 78.0997 1.91895 79.2559L2.14648 79.4834L16.1982 92.6826L16.1992 92.6816C17.6188 94.0178 20.059 95.1502 22.042 95.3994L22.0508 95.4014V95.4004C22.7218 95.4727 23.397 95.5049 24.0723 95.498V95.499L24.0742 95.498L24.0771 95.499V95.498C29.6062 95.4969 49.2721 93.6159 74.4268 69.9883C104.07 42.1373 101.635 21.7437 101.488 20.7305C101.218 18.8417 100.002 16.5365 98.5732 15.2012L84.5098 2.02051L84.3115 1.8418C83.3012 0.977182 82.0417 0.5 80.7344 0.5Z" fill="white" stroke="white"/>
</svg>
