<svg width="393" height="304" viewBox="0 0 393 304" fill="none" xmlns="http://www.w3.org/2000/svg">
<path d="M-0.189375 0.491237C-0.063125 101.491 0.063125 202.491 0.189375 303.491C6.73617 300.916 13.2831 298.47 19.8302 296.151C78.7542 275.288 137.691 264.819 196.641 264.745C255.591 264.672 314.554 274.993 373.53 295.709C380.083 298.011 386.636 300.441 393.189 303C393.063 202 392.937 101 392.811 -1.32284e-05C386.264 2.57484 379.717 5.02136 373.17 7.33955C314.246 28.2032 255.309 38.6719 196.359 38.7456C137.409 38.8193 78.4458 28.498 19.4698 7.78167C12.9169 5.47986 6.36383 3.04971 -0.189375 0.491237Z" fill="#FFBB58"/>
</svg>
