<svg width="393" height="304" viewBox="0 0 393 304" fill="none" xmlns="http://www.w3.org/2000/svg">
<path d="M-1.18937 0.491237C-1.06312 101.491 -0.936875 202.491 -0.810625 303.491C5.73617 300.916 12.2831 298.47 18.8302 296.151C77.7542 275.288 136.691 264.819 195.641 264.745C254.591 264.672 313.554 274.993 372.53 295.709C379.083 298.011 385.636 300.441 392.189 303C392.063 202 391.937 101 391.811 -1.32284e-05C385.264 2.57484 378.717 5.02136 372.17 7.33955C313.246 28.2032 254.309 38.6719 195.359 38.7456C136.409 38.8193 77.4458 28.498 18.4698 7.78167C11.9169 5.47986 5.36383 3.04971 -1.18937 0.491237Z" fill="#99FF9C"/>
</svg>
